<svg xmlns="http://www.w3.org/2000/svg" width="21" height="22" viewBox="0 0 21 22" fill="none"><path d="M15.75 17.0025H15.085C14.385 17.0025 13.72 17.2738 13.23 17.7638L11.7338 19.2426C11.0513 19.9163 9.94 19.9163 9.2575 19.2426L7.76125 17.7638C7.27125 17.2738 6.5975 17.0025 5.90625 17.0025H5.25C3.7975 17.0025 2.625 15.8388 2.625 14.4038V4.85751C2.625 3.42251 3.7975 2.25879 5.25 2.25879H15.75C17.2025 2.25879 18.375 3.42251 18.375 4.85751V14.4038C18.375 15.83 17.2025 17.0025 15.75 17.0025Z" stroke="white" stroke-width="1.5" stroke-miterlimit="10" stroke-linecap="round" stroke-linejoin="round"></path><path d="M6.125 8.51494C6.125 7.70119 6.79 7.03613 7.60375 7.03613C8.4175 7.03613 9.0825 7.70119 9.0825 8.51494C9.0825 10.1599 6.74625 10.3349 6.23 11.9012C6.125 12.2249 6.39625 12.5487 6.7375 12.5487H9.0825" stroke="white" stroke-width="1.5" stroke-linecap="round" stroke-linejoin="round"></path><path d="M14.035 12.54V7.54379C14.035 7.31629 13.8863 7.11499 13.6675 7.05374C13.4488 6.99249 13.2125 7.07999 13.09 7.27249C12.46 8.28749 11.7775 9.4425 11.1825 10.4575C11.0863 10.6238 11.0863 10.8425 11.1825 11.0088C11.2788 11.175 11.4625 11.28 11.6638 11.28H14.875" stroke="white" stroke-width="1.5" stroke-linecap="round" stroke-linejoin="round"></path></svg>