<svg xmlns="http://www.w3.org/2000/svg" width="21" height="22" viewBox="0 0 21 22" fill="none"><path d="M7 11.175H13.125" stroke="white" stroke-width="1.5" stroke-miterlimit="10" stroke-linecap="round" stroke-linejoin="round"></path><path d="M7 14.675H10.8325" stroke="white" stroke-width="1.5" stroke-miterlimit="10" stroke-linecap="round" stroke-linejoin="round"></path><path d="M8.75 5.75H12.25C14 5.75 14 4.875 14 4C14 2.25 13.125 2.25 12.25 2.25H8.75C7.875 2.25 7 2.25 7 4C7 5.75 7.875 5.75 8.75 5.75Z" stroke="white" stroke-width="1.5" stroke-miterlimit="10" stroke-linecap="round" stroke-linejoin="round"></path><path d="M14 4.01746C16.9137 4.17496 18.375 5.25121 18.375 9.24996V14.5C18.375 18 17.5 19.75 13.125 19.75H7.875C3.5 19.75 2.625 18 2.625 14.5V9.24996C2.625 5.25996 4.08625 4.17496 7 4.01746" stroke="white" stroke-width="1.5" stroke-miterlimit="10" stroke-linecap="round" stroke-linejoin="round"></path></svg>