<svg xmlns="http://www.w3.org/2000/svg" width="21" height="22" viewBox="0 0 21 22" fill="none"><path fill-rule="evenodd" clip-rule="evenodd" d="M3.5 11.875H8.75C9.23125 11.875 9.625 11.4812 9.625 11V4C9.625 3.51875 9.23125 3.125 8.75 3.125H3.5C3.01875 3.125 2.625 3.51875 2.625 4V11C2.625 11.4812 3.01875 11.875 3.5 11.875ZM3.5 18.875H8.75C9.23125 18.875 9.625 18.4812 9.625 18V14.5C9.625 14.0188 9.23125 13.625 8.75 13.625H3.5C3.01875 13.625 2.625 14.0188 2.625 14.5V18C2.625 18.4812 3.01875 18.875 3.5 18.875ZM12.25 18.875H17.5C17.9812 18.875 18.375 18.4812 18.375 18V11C18.375 10.5188 17.9812 10.125 17.5 10.125H12.25C11.7688 10.125 11.375 10.5188 11.375 11V18C11.375 18.4812 11.7688 18.875 12.25 18.875ZM11.375 4V7.5C11.375 7.98125 11.7688 8.375 12.25 8.375H17.5C17.9812 8.375 18.375 7.98125 18.375 7.5V4C18.375 3.51875 17.9812 3.125 17.5 3.125H12.25C11.7688 3.125 11.375 3.51875 11.375 4Z" fill="white"></path></svg>