<svg xmlns="http://www.w3.org/2000/svg" width="21" height="22" viewBox="0 0 21 22" fill="none"><path d="M14.875 12.225V14.85C14.875 18.35 13.475 19.75 9.975 19.75H6.65C3.15 19.75 1.75 18.35 1.75 14.85V11.525C1.75 8.025 3.15 6.625 6.65 6.625H9.275" stroke="white" stroke-width="1.5" stroke-linecap="round" stroke-linejoin="round"></path><path d="M14.8749 12.225H12.0749C9.9749 12.225 9.2749 11.525 9.2749 9.425V6.625L14.8749 12.225Z" stroke="white" stroke-width="1.5" stroke-linecap="round" stroke-linejoin="round"></path><path d="M10.1499 2.25H13.6499" stroke="white" stroke-width="1.5" stroke-linecap="round" stroke-linejoin="round"></path><path d="M6.125 4.875C6.125 3.4225 7.2975 2.25 8.75 2.25H11.0425" stroke="white" stroke-width="1.5" stroke-linecap="round" stroke-linejoin="round"></path><path d="M19.2498 7.5V12.9162C19.2498 14.2725 18.1473 15.375 16.791 15.375" stroke="white" stroke-width="1.5" stroke-linecap="round" stroke-linejoin="round"></path><path d="M19.25 7.5H16.625C14.6562 7.5 14 6.84375 14 4.875V2.25L19.25 7.5Z" stroke="white" stroke-width="1.5" stroke-linecap="round" stroke-linejoin="round"></path></svg>