<svg xmlns="http://www.w3.org/2000/svg" width="21" height="22" viewBox="0 0 21 22" fill="none"><path d="M10.5 13.625C11.9497 13.625 13.125 12.4497 13.125 11C13.125 9.55025 11.9497 8.375 10.5 8.375C9.05025 8.375 7.875 9.55025 7.875 11C7.875 12.4497 9.05025 13.625 10.5 13.625Z" stroke="white" stroke-width="1.5" stroke-miterlimit="10" stroke-linecap="round" stroke-linejoin="round"></path><path d="M1.75 11.77V10.23C1.75 9.32 2.49375 8.56751 3.4125 8.56751C4.99625 8.56751 5.64375 7.44751 4.8475 6.07376C4.3925 5.28626 4.66375 4.26251 5.46 3.80751L6.97375 2.94126C7.665 2.53001 8.5575 2.77501 8.96875 3.46626L9.065 3.63251C9.8525 5.00626 11.1475 5.00626 11.9438 3.63251L12.04 3.46626C12.4513 2.77501 13.3438 2.53001 14.035 2.94126L15.5488 3.80751C16.345 4.26251 16.6163 5.28626 16.1613 6.07376C15.365 7.44751 16.0125 8.56751 17.5963 8.56751C18.5063 8.56751 19.2588 9.31125 19.2588 10.23V11.77C19.2588 12.68 18.515 13.4325 17.5963 13.4325C16.0125 13.4325 15.365 14.5525 16.1613 15.9263C16.6163 16.7225 16.345 17.7375 15.5488 18.1925L14.035 19.0588C13.3438 19.47 12.4513 19.225 12.04 18.5338L11.9438 18.3675C11.1563 16.9938 9.86125 16.9938 9.065 18.3675L8.96875 18.5338C8.5575 19.225 7.665 19.47 6.97375 19.0588L5.46 18.1925C4.66375 17.7375 4.3925 16.7138 4.8475 15.9263C5.64375 14.5525 4.99625 13.4325 3.4125 13.4325C2.49375 13.4325 1.75 12.68 1.75 11.77Z" stroke="white" stroke-width="1.5" stroke-miterlimit="10" stroke-linecap="round" stroke-linejoin="round"></path></svg>