<svg xmlns="http://www.w3.org/2000/svg" width="21" height="22" viewBox="0 0 21 22" fill="none"><path d="M18.4451 8.00753V13.9925C18.4451 14.9725 17.9201 15.8825 17.0714 16.3813L11.8739 19.3825C11.0251 19.8725 9.97514 19.8725 9.11764 19.3825L3.92014 16.3813C3.07139 15.8913 2.54639 14.9813 2.54639 13.9925V8.00753C2.54639 7.02753 3.07139 6.11749 3.92014 5.61874L9.11764 2.6175C9.96639 2.1275 11.0164 2.1275 11.8739 2.6175L17.0714 5.61874C17.9201 6.11749 18.4451 7.01878 18.4451 8.00753Z" stroke="white" stroke-width="1.5" stroke-linecap="round" stroke-linejoin="round"></path><path d="M10.5002 10.125C11.6261 10.125 12.5389 9.2122 12.5389 8.08623C12.5389 6.96026 11.6261 6.04752 10.5002 6.04752C9.37421 6.04752 8.46143 6.96026 8.46143 8.08623C8.46143 9.2122 9.37421 10.125 10.5002 10.125Z" stroke="white" stroke-width="1.5" stroke-linecap="round" stroke-linejoin="round"></path><path d="M14 15.0775C14 13.5025 12.4338 12.225 10.5 12.225C8.56625 12.225 7 13.5025 7 15.0775" stroke="white" stroke-width="1.5" stroke-linecap="round" stroke-linejoin="round"></path></svg>