<svg width="150" height="250" viewBox="0 0 1160 464" fill="none" xmlns="http://www.w3.org/2000/svg">
<path d="M538.3 229V159H570.1C577.7 159 584.4 160.467 590.2 163.4C596 166.267 600.533 170.3 603.8 175.5C607.067 180.7 608.7 186.867 608.7 194C608.7 201.067 607.067 207.233 603.8 212.5C600.533 217.7 596 221.767 590.2 224.7C584.4 227.567 577.7 229 570.1 229H538.3ZM554.5 215.7H569.3C573.967 215.7 578 214.833 581.4 213.1C584.867 211.3 587.533 208.767 589.4 205.5C591.333 202.233 592.3 198.4 592.3 194C592.3 189.533 591.333 185.7 589.4 182.5C587.533 179.233 584.867 176.733 581.4 175C578 173.2 573.967 172.3 569.3 172.3H554.5V215.7ZM621.741 229L652.941 159H668.941L700.241 229H683.241L657.641 167.2H664.041L638.341 229H621.741ZM637.341 214L641.641 201.7H677.641L682.041 214H637.341ZM733.403 187.2H767.103V199.8H733.403V187.2ZM734.603 216H772.703V229H718.503V159H771.403V172H734.603V216ZM811.593 190.5H845.193V203.5H811.593V190.5ZM812.793 229H796.593V159H849.493V172H812.793V229ZM904.777 230.2C899.243 230.2 894.11 229.3 889.377 227.5C884.71 225.7 880.643 223.167 877.177 219.9C873.777 216.633 871.11 212.8 869.177 208.4C867.31 204 866.377 199.2 866.377 194C866.377 188.8 867.31 184 869.177 179.6C871.11 175.2 873.81 171.367 877.277 168.1C880.743 164.833 884.81 162.3 889.477 160.5C894.143 158.7 899.21 157.8 904.677 157.8C910.21 157.8 915.277 158.7 919.877 160.5C924.543 162.3 928.577 164.833 931.977 168.1C935.443 171.367 938.143 175.2 940.077 179.6C942.01 183.933 942.977 188.733 942.977 194C942.977 199.2 942.01 204.033 940.077 208.5C938.143 212.9 935.443 216.733 931.977 220C928.577 223.2 924.543 225.7 919.877 227.5C915.277 229.3 910.243 230.2 904.777 230.2ZM904.677 216.4C907.81 216.4 910.677 215.867 913.277 214.8C915.943 213.733 918.277 212.2 920.277 210.2C922.277 208.2 923.81 205.833 924.877 203.1C926.01 200.367 926.577 197.333 926.577 194C926.577 190.667 926.01 187.633 924.877 184.9C923.81 182.167 922.277 179.8 920.277 177.8C918.343 175.8 916.043 174.267 913.377 173.2C910.71 172.133 907.81 171.6 904.677 171.6C901.543 171.6 898.643 172.133 895.977 173.2C893.377 174.267 891.077 175.8 889.077 177.8C887.077 179.8 885.51 182.167 884.377 184.9C883.31 187.633 882.777 190.667 882.777 194C882.777 197.267 883.31 200.3 884.377 203.1C885.51 205.833 887.043 208.2 888.977 210.2C890.977 212.2 893.31 213.733 895.977 214.8C898.643 215.867 901.543 216.4 904.677 216.4ZM966.152 229V159H997.952C1005.55 159 1012.25 160.467 1018.05 163.4C1023.85 166.267 1028.38 170.3 1031.65 175.5C1034.92 180.7 1036.55 186.867 1036.55 194C1036.55 201.067 1034.92 207.233 1031.65 212.5C1028.38 217.7 1023.85 221.767 1018.05 224.7C1012.25 227.567 1005.55 229 997.952 229H966.152ZM982.352 215.7H997.152C1001.82 215.7 1005.85 214.833 1009.25 213.1C1012.72 211.3 1015.38 208.767 1017.25 205.5C1019.18 202.233 1020.15 198.4 1020.15 194C1020.15 189.533 1019.18 185.7 1017.25 182.5C1015.38 179.233 1012.72 176.733 1009.25 175C1005.85 173.2 1001.82 172.3 997.152 172.3H982.352V215.7ZM1059.77 229V159H1075.97V229H1059.77ZM1103.58 229V159H1119.78V215.8H1154.88V229H1103.58Z" fill="#1578FD"/>
<path d="M538.52 289V272.2H545.6C547.392 272.2 548.968 272.552 550.328 273.256C551.704 273.96 552.768 274.944 553.52 276.208C554.288 277.472 554.672 278.936 554.672 280.6C554.672 282.264 554.288 283.728 553.52 284.992C552.768 286.256 551.704 287.24 550.328 287.944C548.968 288.648 547.392 289 545.6 289H538.52ZM540.92 286.912H545.456C546.848 286.912 548.048 286.648 549.056 286.12C550.08 285.592 550.872 284.856 551.432 283.912C551.992 282.952 552.272 281.848 552.272 280.6C552.272 279.336 551.992 278.232 551.432 277.288C550.872 276.344 550.08 275.608 549.056 275.08C548.048 274.552 546.848 274.288 545.456 274.288H540.92V286.912ZM567.108 289V286.312L566.988 285.808V281.224C566.988 280.248 566.7 279.496 566.124 278.968C565.564 278.424 564.716 278.152 563.58 278.152C562.828 278.152 562.092 278.28 561.372 278.536C560.652 278.776 560.044 279.104 559.548 279.52L558.588 277.792C559.244 277.264 560.028 276.864 560.94 276.592C561.868 276.304 562.836 276.16 563.844 276.16C565.588 276.16 566.932 276.584 567.876 277.432C568.82 278.28 569.292 279.576 569.292 281.32V289H567.108ZM562.932 289.144C561.988 289.144 561.156 288.984 560.436 288.664C559.732 288.344 559.188 287.904 558.804 287.344C558.42 286.768 558.228 286.12 558.228 285.4C558.228 284.712 558.388 284.088 558.708 283.528C559.044 282.968 559.58 282.52 560.316 282.184C561.068 281.848 562.076 281.68 563.34 281.68H567.372V283.336H563.436C562.284 283.336 561.508 283.528 561.108 283.912C560.708 284.296 560.508 284.76 560.508 285.304C560.508 285.928 560.756 286.432 561.252 286.816C561.748 287.184 562.436 287.368 563.316 287.368C564.18 287.368 564.932 287.176 565.572 286.792C566.228 286.408 566.7 285.848 566.988 285.112L567.444 286.696C567.14 287.448 566.604 288.048 565.836 288.496C565.068 288.928 564.1 289.144 562.932 289.144ZM579.124 289.144C577.844 289.144 576.852 288.8 576.148 288.112C575.444 287.424 575.092 286.44 575.092 285.16V273.496H577.396V285.064C577.396 285.752 577.564 286.28 577.9 286.648C578.252 287.016 578.748 287.2 579.388 287.2C580.108 287.2 580.708 287 581.188 286.6L581.908 288.256C581.556 288.56 581.132 288.784 580.636 288.928C580.156 289.072 579.652 289.144 579.124 289.144ZM572.932 278.176V276.28H581.044V278.176H572.932ZM593.789 289V286.312L593.669 285.808V281.224C593.669 280.248 593.381 279.496 592.805 278.968C592.245 278.424 591.397 278.152 590.261 278.152C589.509 278.152 588.773 278.28 588.053 278.536C587.333 278.776 586.725 279.104 586.229 279.52L585.269 277.792C585.925 277.264 586.709 276.864 587.621 276.592C588.549 276.304 589.517 276.16 590.525 276.16C592.269 276.16 593.613 276.584 594.557 277.432C595.501 278.28 595.973 279.576 595.973 281.32V289H593.789ZM589.613 289.144C588.669 289.144 587.837 288.984 587.117 288.664C586.413 288.344 585.869 287.904 585.485 287.344C585.101 286.768 584.909 286.12 584.909 285.4C584.909 284.712 585.069 284.088 585.389 283.528C585.725 282.968 586.261 282.52 586.997 282.184C587.749 281.848 588.757 281.68 590.021 281.68H594.053V283.336H590.117C588.965 283.336 588.189 283.528 587.789 283.912C587.389 284.296 587.189 284.76 587.189 285.304C587.189 285.928 587.437 286.432 587.933 286.816C588.429 287.184 589.117 287.368 589.997 287.368C590.861 287.368 591.613 287.176 592.253 286.792C592.909 286.408 593.381 285.848 593.669 285.112L594.125 286.696C593.821 287.448 593.285 288.048 592.517 288.496C591.749 288.928 590.781 289.144 589.613 289.144ZM611.602 279.448H620.242V281.488H611.602V279.448ZM611.818 286.912H621.61V289H609.418V272.2H621.274V274.288H611.818V286.912ZM624.231 289L629.703 281.896L629.679 283.072L624.471 276.28H627.039L631.023 281.512H630.039L634.023 276.28H636.543L631.263 283.12L631.287 281.896L636.807 289H634.191L629.991 283.432L630.927 283.576L626.799 289H624.231ZM644.89 289.144C643.61 289.144 642.618 288.8 641.914 288.112C641.21 287.424 640.858 286.44 640.858 285.16V273.496H643.162V285.064C643.162 285.752 643.33 286.28 643.666 286.648C644.018 287.016 644.514 287.2 645.154 287.2C645.874 287.2 646.474 287 646.954 286.6L647.674 288.256C647.322 288.56 646.898 288.784 646.402 288.928C645.922 289.072 645.418 289.144 644.89 289.144ZM638.698 278.176V276.28H646.81V278.176H638.698ZM651.659 289V276.28H653.867V279.736L653.651 278.872C654.003 277.992 654.595 277.32 655.427 276.856C656.259 276.392 657.283 276.16 658.499 276.16V278.392C658.403 278.376 658.307 278.368 658.211 278.368C658.131 278.368 658.051 278.368 657.971 278.368C656.739 278.368 655.763 278.736 655.043 279.472C654.323 280.208 653.963 281.272 653.963 282.664V289H651.659ZM669.497 289V286.312L669.377 285.808V281.224C669.377 280.248 669.089 279.496 668.513 278.968C667.953 278.424 667.105 278.152 665.969 278.152C665.217 278.152 664.481 278.28 663.761 278.536C663.041 278.776 662.433 279.104 661.937 279.52L660.977 277.792C661.633 277.264 662.417 276.864 663.329 276.592C664.257 276.304 665.225 276.16 666.233 276.16C667.977 276.16 669.321 276.584 670.265 277.432C671.209 278.28 671.681 279.576 671.681 281.32V289H669.497ZM665.321 289.144C664.377 289.144 663.545 288.984 662.825 288.664C662.121 288.344 661.577 287.904 661.193 287.344C660.809 286.768 660.617 286.12 660.617 285.4C660.617 284.712 660.777 284.088 661.097 283.528C661.433 282.968 661.969 282.52 662.705 282.184C663.457 281.848 664.465 281.68 665.729 281.68H669.761V283.336H665.825C664.673 283.336 663.897 283.528 663.497 283.912C663.097 284.296 662.897 284.76 662.897 285.304C662.897 285.928 663.145 286.432 663.641 286.816C664.137 287.184 664.825 287.368 665.705 287.368C666.569 287.368 667.321 287.176 667.961 286.792C668.617 286.408 669.089 285.848 669.377 285.112L669.833 286.696C669.529 287.448 668.993 288.048 668.225 288.496C667.457 288.928 666.489 289.144 665.321 289.144ZM682.689 289.144C681.393 289.144 680.233 288.864 679.209 288.304C678.201 287.744 677.409 286.976 676.833 286C676.257 285.024 675.969 283.904 675.969 282.64C675.969 281.376 676.257 280.256 676.833 279.28C677.409 278.304 678.201 277.544 679.209 277C680.233 276.44 681.393 276.16 682.689 276.16C683.841 276.16 684.865 276.392 685.761 276.856C686.673 277.304 687.377 277.976 687.873 278.872L686.121 280C685.705 279.376 685.193 278.92 684.585 278.632C683.993 278.328 683.353 278.176 682.665 278.176C681.833 278.176 681.089 278.36 680.433 278.728C679.777 279.096 679.257 279.616 678.873 280.288C678.489 280.944 678.297 281.728 678.297 282.64C678.297 283.552 678.489 284.344 678.873 285.016C679.257 285.688 679.777 286.208 680.433 286.576C681.089 286.944 681.833 287.128 682.665 287.128C683.353 287.128 683.993 286.984 684.585 286.696C685.193 286.392 685.705 285.928 686.121 285.304L687.873 286.408C687.377 287.288 686.673 287.968 685.761 288.448C684.865 288.912 683.841 289.144 682.689 289.144ZM696.588 289.144C695.308 289.144 694.316 288.8 693.612 288.112C692.908 287.424 692.556 286.44 692.556 285.16V273.496H694.86V285.064C694.86 285.752 695.028 286.28 695.364 286.648C695.716 287.016 696.212 287.2 696.852 287.2C697.572 287.2 698.172 287 698.652 286.6L699.372 288.256C699.02 288.56 698.596 288.784 698.1 288.928C697.62 289.072 697.116 289.144 696.588 289.144ZM690.396 278.176V276.28H698.508V278.176H690.396ZM703.357 289V276.28H705.661V289H703.357ZM704.509 273.832C704.061 273.832 703.685 273.688 703.381 273.4C703.093 273.112 702.949 272.76 702.949 272.344C702.949 271.912 703.093 271.552 703.381 271.264C703.685 270.976 704.061 270.832 704.509 270.832C704.957 270.832 705.325 270.976 705.613 271.264C705.917 271.536 706.069 271.88 706.069 272.296C706.069 272.728 705.925 273.096 705.637 273.4C705.349 273.688 704.973 273.832 704.509 273.832ZM716.709 289.144C715.429 289.144 714.293 288.864 713.301 288.304C712.309 287.744 711.525 286.976 710.949 286C710.373 285.008 710.085 283.888 710.085 282.64C710.085 281.376 710.373 280.256 710.949 279.28C711.525 278.304 712.309 277.544 713.301 277C714.293 276.44 715.429 276.16 716.709 276.16C717.973 276.16 719.101 276.44 720.093 277C721.101 277.544 721.885 278.304 722.445 279.28C723.021 280.24 723.309 281.36 723.309 282.64C723.309 283.904 723.021 285.024 722.445 286C721.885 286.976 721.101 287.744 720.093 288.304C719.101 288.864 717.973 289.144 716.709 289.144ZM716.709 287.128C717.525 287.128 718.253 286.944 718.893 286.576C719.549 286.208 720.061 285.688 720.429 285.016C720.797 284.328 720.981 283.536 720.981 282.64C720.981 281.728 720.797 280.944 720.429 280.288C720.061 279.616 719.549 279.096 718.893 278.728C718.253 278.36 717.525 278.176 716.709 278.176C715.893 278.176 715.165 278.36 714.525 278.728C713.885 279.096 713.373 279.616 712.989 280.288C712.605 280.944 712.413 281.728 712.413 282.64C712.413 283.536 712.605 284.328 712.989 285.016C713.373 285.688 713.885 286.208 714.525 286.576C715.165 286.944 715.893 287.128 716.709 287.128ZM734.487 276.16C735.527 276.16 736.439 276.36 737.223 276.76C738.023 277.16 738.647 277.768 739.095 278.584C739.543 279.4 739.767 280.432 739.767 281.68V289H737.463V281.944C737.463 280.712 737.159 279.784 736.551 279.16C735.959 278.536 735.119 278.224 734.031 278.224C733.215 278.224 732.503 278.384 731.895 278.704C731.287 279.024 730.815 279.496 730.479 280.12C730.159 280.744 729.999 281.52 729.999 282.448V289H727.695V276.28H729.903V279.712L729.543 278.8C729.959 277.968 730.599 277.32 731.463 276.856C732.327 276.392 733.335 276.16 734.487 276.16ZM755.372 280.144H764.036V282.208H755.372V280.144ZM755.612 289H753.212V272.2H765.068V274.288H755.612V289ZM769.076 289V276.28H771.284V279.736L771.068 278.872C771.42 277.992 772.012 277.32 772.844 276.856C773.676 276.392 774.7 276.16 775.916 276.16V278.392C775.82 278.376 775.724 278.368 775.628 278.368C775.548 278.368 775.468 278.368 775.388 278.368C774.156 278.368 773.18 278.736 772.46 279.472C771.74 280.208 771.38 281.272 771.38 282.664V289H769.076ZM785.287 289.144C784.007 289.144 782.871 288.864 781.879 288.304C780.887 287.744 780.103 286.976 779.527 286C778.951 285.008 778.663 283.888 778.663 282.64C778.663 281.376 778.951 280.256 779.527 279.28C780.103 278.304 780.887 277.544 781.879 277C782.871 276.44 784.007 276.16 785.287 276.16C786.551 276.16 787.679 276.44 788.671 277C789.679 277.544 790.463 278.304 791.023 279.28C791.599 280.24 791.887 281.36 791.887 282.64C791.887 283.904 791.599 285.024 791.023 286C790.463 286.976 789.679 287.744 788.671 288.304C787.679 288.864 786.551 289.144 785.287 289.144ZM785.287 287.128C786.103 287.128 786.831 286.944 787.471 286.576C788.127 286.208 788.639 285.688 789.007 285.016C789.375 284.328 789.559 283.536 789.559 282.64C789.559 281.728 789.375 280.944 789.007 280.288C788.639 279.616 788.127 279.096 787.471 278.728C786.831 278.36 786.103 278.176 785.287 278.176C784.471 278.176 783.743 278.36 783.103 278.728C782.463 279.096 781.951 279.616 781.567 280.288C781.183 280.944 780.991 281.728 780.991 282.64C780.991 283.536 781.183 284.328 781.567 285.016C781.951 285.688 782.463 286.208 783.103 286.576C783.743 286.944 784.471 287.128 785.287 287.128ZM812.185 276.16C813.209 276.16 814.113 276.36 814.897 276.76C815.681 277.16 816.289 277.768 816.721 278.584C817.169 279.4 817.393 280.432 817.393 281.68V289H815.089V281.944C815.089 280.712 814.801 279.784 814.225 279.16C813.649 278.536 812.841 278.224 811.801 278.224C811.033 278.224 810.361 278.384 809.785 278.704C809.209 279.024 808.761 279.496 808.441 280.12C808.137 280.744 807.985 281.52 807.985 282.448V289H805.681V281.944C805.681 280.712 805.393 279.784 804.817 279.16C804.257 278.536 803.449 278.224 802.393 278.224C801.641 278.224 800.977 278.384 800.401 278.704C799.825 279.024 799.377 279.496 799.057 280.12C798.737 280.744 798.577 281.52 798.577 282.448V289H796.273V276.28H798.481V279.664L798.121 278.8C798.521 277.968 799.137 277.32 799.969 276.856C800.801 276.392 801.769 276.16 802.873 276.16C804.089 276.16 805.137 276.464 806.017 277.072C806.897 277.664 807.473 278.568 807.745 279.784L806.809 279.4C807.193 278.424 807.865 277.64 808.825 277.048C809.785 276.456 810.905 276.16 812.185 276.16ZM835.734 289.144C834.502 289.144 833.398 288.872 832.422 288.328C831.462 287.784 830.702 287.024 830.142 286.048C829.582 285.072 829.302 283.936 829.302 282.64C829.302 281.344 829.582 280.216 830.142 279.256C830.702 278.28 831.462 277.52 832.422 276.976C833.398 276.432 834.502 276.16 835.734 276.16C836.806 276.16 837.774 276.4 838.638 276.88C839.502 277.36 840.19 278.08 840.702 279.04C841.23 280 841.494 281.2 841.494 282.64C841.494 284.08 841.238 285.28 840.726 286.24C840.23 287.2 839.55 287.928 838.686 288.424C837.822 288.904 836.838 289.144 835.734 289.144ZM835.926 287.128C836.726 287.128 837.446 286.944 838.086 286.576C838.742 286.208 839.254 285.688 839.622 285.016C840.006 284.328 840.198 283.536 840.198 282.64C840.198 281.728 840.006 280.944 839.622 280.288C839.254 279.616 838.742 279.096 838.086 278.728C837.446 278.36 836.726 278.176 835.926 278.176C835.11 278.176 834.382 278.36 833.742 278.728C833.102 279.096 832.59 279.616 832.206 280.288C831.822 280.944 831.63 281.728 831.63 282.64C831.63 283.536 831.822 284.328 832.206 285.016C832.59 285.688 833.102 286.208 833.742 286.576C834.382 286.944 835.11 287.128 835.926 287.128ZM840.27 289V285.568L840.414 282.616L840.174 279.664V271.192H842.478V289H840.27ZM853.485 289.144C852.205 289.144 851.069 288.864 850.077 288.304C849.085 287.744 848.301 286.976 847.725 286C847.149 285.008 846.861 283.888 846.861 282.64C846.861 281.376 847.149 280.256 847.725 279.28C848.301 278.304 849.085 277.544 850.077 277C851.069 276.44 852.205 276.16 853.485 276.16C854.749 276.16 855.877 276.44 856.869 277C857.877 277.544 858.661 278.304 859.221 279.28C859.797 280.24 860.085 281.36 860.085 282.64C860.085 283.904 859.797 285.024 859.221 286C858.661 286.976 857.877 287.744 856.869 288.304C855.877 288.864 854.749 289.144 853.485 289.144ZM853.485 287.128C854.301 287.128 855.029 286.944 855.669 286.576C856.325 286.208 856.837 285.688 857.205 285.016C857.573 284.328 857.757 283.536 857.757 282.64C857.757 281.728 857.573 280.944 857.205 280.288C856.837 279.616 856.325 279.096 855.669 278.728C855.029 278.36 854.301 278.176 853.485 278.176C852.669 278.176 851.941 278.36 851.301 278.728C850.661 279.096 850.149 279.616 849.765 280.288C849.381 280.944 849.189 281.728 849.189 282.64C849.189 283.536 849.381 284.328 849.765 285.016C850.149 285.688 850.661 286.208 851.301 286.576C851.941 286.944 852.669 287.128 853.485 287.128ZM870.016 289.144C868.72 289.144 867.56 288.864 866.536 288.304C865.528 287.744 864.736 286.976 864.16 286C863.584 285.024 863.296 283.904 863.296 282.64C863.296 281.376 863.584 280.256 864.16 279.28C864.736 278.304 865.528 277.544 866.536 277C867.56 276.44 868.72 276.16 870.016 276.16C871.168 276.16 872.192 276.392 873.088 276.856C874 277.304 874.704 277.976 875.2 278.872L873.448 280C873.032 279.376 872.52 278.92 871.912 278.632C871.32 278.328 870.68 278.176 869.992 278.176C869.16 278.176 868.416 278.36 867.76 278.728C867.104 279.096 866.584 279.616 866.2 280.288C865.816 280.944 865.624 281.728 865.624 282.64C865.624 283.552 865.816 284.344 866.2 285.016C866.584 285.688 867.104 286.208 867.76 286.576C868.416 286.944 869.16 287.128 869.992 287.128C870.68 287.128 871.32 286.984 871.912 286.696C872.52 286.392 873.032 285.928 873.448 285.304L875.2 286.408C874.704 287.288 874 287.968 873.088 288.448C872.192 288.912 871.168 289.144 870.016 289.144ZM884.734 289.144C883.646 289.144 882.686 288.944 881.854 288.544C881.038 288.144 880.398 287.536 879.934 286.72C879.486 285.888 879.262 284.848 879.262 283.6V276.28H881.566V283.336C881.566 284.584 881.862 285.52 882.454 286.144C883.062 286.768 883.91 287.08 884.998 287.08C885.798 287.08 886.494 286.92 887.086 286.6C887.678 286.264 888.134 285.784 888.454 285.16C888.774 284.52 888.934 283.752 888.934 282.856V276.28H891.238V289H889.054V285.568L889.414 286.48C888.998 287.328 888.374 287.984 887.542 288.448C886.71 288.912 885.774 289.144 884.734 289.144ZM912.737 276.16C913.761 276.16 914.665 276.36 915.449 276.76C916.233 277.16 916.841 277.768 917.273 278.584C917.721 279.4 917.945 280.432 917.945 281.68V289H915.641V281.944C915.641 280.712 915.353 279.784 914.777 279.16C914.201 278.536 913.393 278.224 912.353 278.224C911.585 278.224 910.913 278.384 910.337 278.704C909.761 279.024 909.313 279.496 908.993 280.12C908.689 280.744 908.537 281.52 908.537 282.448V289H906.233V281.944C906.233 280.712 905.945 279.784 905.369 279.16C904.809 278.536 904.001 278.224 902.945 278.224C902.193 278.224 901.529 278.384 900.953 278.704C900.377 279.024 899.929 279.496 899.609 280.12C899.289 280.744 899.129 281.52 899.129 282.448V289H896.825V276.28H899.033V279.664L898.673 278.8C899.073 277.968 899.689 277.32 900.521 276.856C901.353 276.392 902.321 276.16 903.425 276.16C904.641 276.16 905.689 276.464 906.569 277.072C907.449 277.664 908.025 278.568 908.297 279.784L907.361 279.4C907.745 278.424 908.417 277.64 909.377 277.048C910.337 276.456 911.457 276.16 912.737 276.16ZM929.048 289.144C927.688 289.144 926.488 288.864 925.448 288.304C924.424 287.744 923.624 286.976 923.048 286C922.488 285.024 922.208 283.904 922.208 282.64C922.208 281.376 922.48 280.256 923.024 279.28C923.584 278.304 924.344 277.544 925.304 277C926.28 276.44 927.376 276.16 928.592 276.16C929.824 276.16 930.912 276.432 931.856 276.976C932.8 277.52 933.536 278.288 934.064 279.28C934.608 280.256 934.88 281.4 934.88 282.712C934.88 282.808 934.872 282.92 934.856 283.048C934.856 283.176 934.848 283.296 934.832 283.408H924.008V281.752H933.632L932.696 282.328C932.712 281.512 932.544 280.784 932.192 280.144C931.84 279.504 931.352 279.008 930.728 278.656C930.12 278.288 929.408 278.104 928.592 278.104C927.792 278.104 927.08 278.288 926.456 278.656C925.832 279.008 925.344 279.512 924.992 280.168C924.64 280.808 924.464 281.544 924.464 282.376V282.76C924.464 283.608 924.656 284.368 925.04 285.04C925.44 285.696 925.992 286.208 926.696 286.576C927.4 286.944 928.208 287.128 929.12 287.128C929.872 287.128 930.552 287 931.16 286.744C931.784 286.488 932.328 286.104 932.792 285.592L934.064 287.08C933.488 287.752 932.768 288.264 931.904 288.616C931.056 288.968 930.104 289.144 929.048 289.144ZM946.071 276.16C947.111 276.16 948.023 276.36 948.807 276.76C949.607 277.16 950.231 277.768 950.679 278.584C951.127 279.4 951.351 280.432 951.351 281.68V289H949.047V281.944C949.047 280.712 948.743 279.784 948.135 279.16C947.543 278.536 946.703 278.224 945.615 278.224C944.799 278.224 944.087 278.384 943.479 278.704C942.871 279.024 942.399 279.496 942.063 280.12C941.743 280.744 941.583 281.52 941.583 282.448V289H939.279V276.28H941.487V279.712L941.127 278.8C941.543 277.968 942.183 277.32 943.047 276.856C943.911 276.392 944.919 276.16 946.071 276.16ZM961.183 289.144C959.903 289.144 958.911 288.8 958.207 288.112C957.503 287.424 957.151 286.44 957.151 285.16V273.496H959.455V285.064C959.455 285.752 959.623 286.28 959.959 286.648C960.311 287.016 960.807 287.2 961.447 287.2C962.167 287.2 962.767 287 963.247 286.6L963.967 288.256C963.615 288.56 963.191 288.784 962.695 288.928C962.215 289.072 961.711 289.144 961.183 289.144ZM954.991 278.176V276.28H963.103V278.176H954.991ZM971.601 289.144C970.545 289.144 969.537 289 968.577 288.712C967.633 288.424 966.889 288.072 966.345 287.656L967.305 285.832C967.849 286.2 968.521 286.512 969.321 286.768C970.121 287.024 970.937 287.152 971.769 287.152C972.841 287.152 973.609 287 974.073 286.696C974.553 286.392 974.793 285.968 974.793 285.424C974.793 285.024 974.649 284.712 974.361 284.488C974.073 284.264 973.689 284.096 973.209 283.984C972.745 283.872 972.225 283.776 971.649 283.696C971.073 283.6 970.497 283.488 969.921 283.36C969.345 283.216 968.817 283.024 968.337 282.784C967.857 282.528 967.473 282.184 967.185 281.752C966.897 281.304 966.753 280.712 966.753 279.976C966.753 279.208 966.969 278.536 967.401 277.96C967.833 277.384 968.441 276.944 969.225 276.64C970.025 276.32 970.969 276.16 972.057 276.16C972.889 276.16 973.729 276.264 974.577 276.472C975.441 276.664 976.145 276.944 976.689 277.312L975.705 279.136C975.129 278.752 974.529 278.488 973.905 278.344C973.281 278.2 972.657 278.128 972.033 278.128C971.025 278.128 970.273 278.296 969.777 278.632C969.281 278.952 969.033 279.368 969.033 279.88C969.033 280.312 969.177 280.648 969.465 280.888C969.769 281.112 970.153 281.288 970.617 281.416C971.097 281.544 971.625 281.656 972.201 281.752C972.777 281.832 973.353 281.944 973.929 282.088C974.505 282.216 975.025 282.4 975.489 282.64C975.969 282.88 976.353 283.216 976.641 283.648C976.945 284.08 977.097 284.656 977.097 285.376C977.097 286.144 976.873 286.808 976.425 287.368C975.977 287.928 975.345 288.368 974.529 288.688C973.713 288.992 972.737 289.144 971.601 289.144ZM988.822 289V276.28H991.126V289H988.822ZM989.974 273.832C989.526 273.832 989.15 273.688 988.846 273.4C988.558 273.112 988.414 272.76 988.414 272.344C988.414 271.912 988.558 271.552 988.846 271.264C989.15 270.976 989.526 270.832 989.974 270.832C990.422 270.832 990.79 270.976 991.078 271.264C991.382 271.536 991.534 271.88 991.534 272.296C991.534 272.728 991.39 273.096 991.102 273.4C990.814 273.688 990.438 273.832 989.974 273.832ZM1003.52 276.16C1004.56 276.16 1005.47 276.36 1006.25 276.76C1007.05 277.16 1007.68 277.768 1008.12 278.584C1008.57 279.4 1008.8 280.432 1008.8 281.68V289H1006.49V281.944C1006.49 280.712 1006.19 279.784 1005.58 279.16C1004.99 278.536 1004.15 278.224 1003.06 278.224C1002.24 278.224 1001.53 278.384 1000.92 278.704C1000.32 279.024 999.845 279.496 999.509 280.12C999.189 280.744 999.029 281.52 999.029 282.448V289H996.725V276.28H998.933V279.712L998.573 278.8C998.989 277.968 999.629 277.32 1000.49 276.856C1001.36 276.392 1002.36 276.16 1003.52 276.16ZM1018.63 289.144C1017.35 289.144 1016.36 288.8 1015.65 288.112C1014.95 287.424 1014.6 286.44 1014.6 285.16V273.496H1016.9V285.064C1016.9 285.752 1017.07 286.28 1017.4 286.648C1017.76 287.016 1018.25 287.2 1018.89 287.2C1019.61 287.2 1020.21 287 1020.69 286.6L1021.41 288.256C1021.06 288.56 1020.64 288.784 1020.14 288.928C1019.66 289.072 1019.16 289.144 1018.63 289.144ZM1012.44 278.176V276.28H1020.55V278.176H1012.44ZM1030.64 289.144C1029.28 289.144 1028.08 288.864 1027.04 288.304C1026.02 287.744 1025.22 286.976 1024.64 286C1024.08 285.024 1023.8 283.904 1023.8 282.64C1023.8 281.376 1024.07 280.256 1024.62 279.28C1025.18 278.304 1025.94 277.544 1026.9 277C1027.87 276.44 1028.97 276.16 1030.18 276.16C1031.42 276.16 1032.5 276.432 1033.45 276.976C1034.39 277.52 1035.13 278.288 1035.66 279.28C1036.2 280.256 1036.47 281.4 1036.47 282.712C1036.47 282.808 1036.46 282.92 1036.45 283.048C1036.45 283.176 1036.44 283.296 1036.42 283.408H1025.6V281.752H1035.22L1034.29 282.328C1034.3 281.512 1034.14 280.784 1033.78 280.144C1033.43 279.504 1032.94 279.008 1032.32 278.656C1031.71 278.288 1031 278.104 1030.18 278.104C1029.38 278.104 1028.67 278.288 1028.05 278.656C1027.42 279.008 1026.94 279.512 1026.58 280.168C1026.23 280.808 1026.06 281.544 1026.06 282.376V282.76C1026.06 283.608 1026.25 284.368 1026.63 285.04C1027.03 285.696 1027.58 286.208 1028.29 286.576C1028.99 286.944 1029.8 287.128 1030.71 287.128C1031.46 287.128 1032.14 287 1032.75 286.744C1033.38 286.488 1033.92 286.104 1034.38 285.592L1035.66 287.08C1035.08 287.752 1034.36 288.264 1033.5 288.616C1032.65 288.968 1031.7 289.144 1030.64 289.144ZM1040.87 289V271.192H1043.18V289H1040.87ZM1048.77 289V271.192H1051.08V289H1048.77ZM1056.68 289V276.28H1058.98V289H1056.68ZM1057.83 273.832C1057.38 273.832 1057.01 273.688 1056.7 273.4C1056.41 273.112 1056.27 272.76 1056.27 272.344C1056.27 271.912 1056.41 271.552 1056.7 271.264C1057.01 270.976 1057.38 270.832 1057.83 270.832C1058.28 270.832 1058.65 270.976 1058.93 271.264C1059.24 271.536 1059.39 271.88 1059.39 272.296C1059.39 272.728 1059.25 273.096 1058.96 273.4C1058.67 273.688 1058.29 273.832 1057.83 273.832ZM1070.15 293.8C1068.98 293.8 1067.84 293.632 1066.74 293.296C1065.65 292.976 1064.76 292.512 1064.08 291.904L1065.18 290.128C1065.77 290.64 1066.5 291.04 1067.36 291.328C1068.23 291.632 1069.13 291.784 1070.08 291.784C1071.58 291.784 1072.68 291.432 1073.39 290.728C1074.09 290.024 1074.44 288.952 1074.44 287.512V284.824L1074.68 282.304L1074.56 279.76V276.28H1076.75V287.272C1076.75 289.512 1076.19 291.16 1075.07 292.216C1073.95 293.272 1072.31 293.8 1070.15 293.8ZM1069.86 288.472C1068.63 288.472 1067.52 288.216 1066.55 287.704C1065.59 287.176 1064.82 286.448 1064.24 285.52C1063.68 284.592 1063.4 283.52 1063.4 282.304C1063.4 281.072 1063.68 280 1064.24 279.088C1064.82 278.16 1065.59 277.44 1066.55 276.928C1067.52 276.416 1068.63 276.16 1069.86 276.16C1070.95 276.16 1071.94 276.384 1072.84 276.832C1073.73 277.264 1074.44 277.936 1074.97 278.848C1075.52 279.76 1075.79 280.912 1075.79 282.304C1075.79 283.68 1075.52 284.824 1074.97 285.736C1074.44 286.648 1073.73 287.336 1072.84 287.8C1071.94 288.248 1070.95 288.472 1069.86 288.472ZM1070.12 286.456C1070.97 286.456 1071.72 286.28 1072.38 285.928C1073.04 285.576 1073.55 285.088 1073.92 284.464C1074.3 283.84 1074.49 283.12 1074.49 282.304C1074.49 281.488 1074.3 280.768 1073.92 280.144C1073.55 279.52 1073.04 279.04 1072.38 278.704C1071.72 278.352 1070.97 278.176 1070.12 278.176C1069.28 278.176 1068.52 278.352 1067.84 278.704C1067.19 279.04 1066.67 279.52 1066.28 280.144C1065.92 280.768 1065.73 281.488 1065.73 282.304C1065.73 283.12 1065.92 283.84 1066.28 284.464C1066.67 285.088 1067.19 285.576 1067.84 285.928C1068.52 286.28 1069.28 286.456 1070.12 286.456ZM1088.02 289.144C1086.66 289.144 1085.46 288.864 1084.42 288.304C1083.39 287.744 1082.59 286.976 1082.02 286C1081.46 285.024 1081.18 283.904 1081.18 282.64C1081.18 281.376 1081.45 280.256 1081.99 279.28C1082.55 278.304 1083.31 277.544 1084.27 277C1085.25 276.44 1086.34 276.16 1087.56 276.16C1088.79 276.16 1089.88 276.432 1090.82 276.976C1091.77 277.52 1092.5 278.288 1093.03 279.28C1093.58 280.256 1093.85 281.4 1093.85 282.712C1093.85 282.808 1093.84 282.92 1093.82 283.048C1093.82 283.176 1093.82 283.296 1093.8 283.408H1082.98V281.752H1092.6L1091.66 282.328C1091.68 281.512 1091.51 280.784 1091.16 280.144C1090.81 279.504 1090.32 279.008 1089.7 278.656C1089.09 278.288 1088.38 278.104 1087.56 278.104C1086.76 278.104 1086.05 278.288 1085.42 278.656C1084.8 279.008 1084.31 279.512 1083.96 280.168C1083.61 280.808 1083.43 281.544 1083.43 282.376V282.76C1083.43 283.608 1083.62 284.368 1084.01 285.04C1084.41 285.696 1084.96 286.208 1085.66 286.576C1086.37 286.944 1087.18 287.128 1088.09 287.128C1088.84 287.128 1089.52 287 1090.13 286.744C1090.75 286.488 1091.3 286.104 1091.76 285.592L1093.03 287.08C1092.46 287.752 1091.74 288.264 1090.87 288.616C1090.02 288.968 1089.07 289.144 1088.02 289.144ZM1105.04 276.16C1106.08 276.16 1106.99 276.36 1107.77 276.76C1108.57 277.16 1109.2 277.768 1109.65 278.584C1110.09 279.4 1110.32 280.432 1110.32 281.68V289H1108.01V281.944C1108.01 280.712 1107.71 279.784 1107.1 279.16C1106.51 278.536 1105.67 278.224 1104.58 278.224C1103.77 278.224 1103.05 278.384 1102.45 278.704C1101.84 279.024 1101.37 279.496 1101.03 280.12C1100.71 280.744 1100.55 281.52 1100.55 282.448V289H1098.25V276.28H1100.45V279.712L1100.09 278.8C1100.51 277.968 1101.15 277.32 1102.01 276.856C1102.88 276.392 1103.89 276.16 1105.04 276.16ZM1120.15 289.144C1118.87 289.144 1117.88 288.8 1117.17 288.112C1116.47 287.424 1116.12 286.44 1116.12 285.16V273.496H1118.42V285.064C1118.42 285.752 1118.59 286.28 1118.93 286.648C1119.28 287.016 1119.77 287.2 1120.41 287.2C1121.13 287.2 1121.73 287 1122.21 286.6L1122.93 288.256C1122.58 288.56 1122.16 288.784 1121.66 288.928C1121.18 289.072 1120.68 289.144 1120.15 289.144ZM1113.96 278.176V276.28H1122.07V278.176H1113.96ZM1126.92 289V271.192H1129.22V289H1126.92ZM1135.38 293.8C1134.77 293.8 1134.18 293.696 1133.6 293.488C1133.02 293.296 1132.53 293.008 1132.11 292.624L1133.1 290.896C1133.42 291.2 1133.77 291.432 1134.15 291.592C1134.54 291.752 1134.94 291.832 1135.38 291.832C1135.94 291.832 1136.4 291.688 1136.77 291.4C1137.14 291.112 1137.48 290.6 1137.8 289.864L1138.59 288.112L1138.83 287.824L1143.82 276.28H1146.08L1139.91 290.272C1139.54 291.168 1139.13 291.872 1138.66 292.384C1138.22 292.896 1137.72 293.256 1137.18 293.464C1136.63 293.688 1136.03 293.8 1135.38 293.8ZM1138.4 289.408L1132.59 276.28H1134.99L1139.94 287.608L1138.4 289.408Z" fill="black"/>
<circle cx="232" cy="232" r="232" fill="#1578FD"/>
<path d="M215.182 189.836L250.678 232.277L215.182 274.718L271.898 232.277L215.182 189.836Z" fill="#F7F7F7"/>
<path d="M183.545 189.836L219.041 232.277L183.545 274.718L240.261 232.277L183.545 189.836Z" fill="#F7F7F7"/>
<path d="M217.11 120H182V142.378H218.654C268.039 142.378 308.165 182.89 308.165 231.89C308.165 281.276 267.654 321.401 218.654 321.401H182V343.008H217.11C278.457 343.008 329 292.85 329 231.118C329 169.386 278.457 120 217.11 120Z" fill="#F7F7F7"/>
</svg>
