<svg width="21" height="22" viewBox="0 0 21 22" fill="none" xmlns="http://www.w3.org/2000/svg">
<path d="M18.375 6.625V15.375C18.375 18 17.0625 19.75 14 19.75H7C3.9375 19.75 2.625 18 2.625 15.375V6.625C2.625 4 3.9375 2.25 7 2.25H14C17.0625 2.25 18.375 4 18.375 6.625Z" stroke="white" stroke-width="1.5" stroke-miterlimit="10" stroke-linecap="round" stroke-linejoin="round"/>
<path d="M13.5625 2.25V9.12749C13.5625 9.51249 13.1075 9.70498 12.8275 9.45123L10.7975 7.57877C10.6313 7.42127 10.3687 7.42127 10.2025 7.57877L8.17252 9.45123C7.89252 9.70498 7.4375 9.51249 7.4375 9.12749V2.25H13.5625Z" stroke="white" stroke-width="1.5" stroke-miterlimit="10" stroke-linecap="round" stroke-linejoin="round"/>
<path d="M11.5938 12.75H15.3125" stroke="white" stroke-width="1.5" stroke-miterlimit="10" stroke-linecap="round" stroke-linejoin="round"/>
<path d="M7.875 16.25H15.3125" stroke="white" stroke-width="1.5" stroke-miterlimit="10" stroke-linecap="round" stroke-linejoin="round"/>
</svg>
