<svg width="21" height="22" viewBox="0 0 21 22" fill="none" xmlns="http://www.w3.org/2000/svg">
<path d="M4.375 9.25H6.125C7.875 9.25 8.75 8.375 8.75 6.625V4.875C8.75 3.125 7.875 2.25 6.125 2.25H4.375C2.625 2.25 1.75 3.125 1.75 4.875V6.625C1.75 8.375 2.625 9.25 4.375 9.25Z" stroke="white" stroke-width="1.5" stroke-miterlimit="10" stroke-linecap="round" stroke-linejoin="round"/>
<path d="M14.875 9.25H16.625C18.375 9.25 19.25 8.375 19.25 6.625V4.875C19.25 3.125 18.375 2.25 16.625 2.25H14.875C13.125 2.25 12.25 3.125 12.25 4.875V6.625C12.25 8.375 13.125 9.25 14.875 9.25Z" stroke="white" stroke-width="1.5" stroke-miterlimit="10" stroke-linecap="round" stroke-linejoin="round"/>
<path d="M14.875 19.75H16.625C18.375 19.75 19.25 18.875 19.25 17.125V15.375C19.25 13.625 18.375 12.75 16.625 12.75H14.875C13.125 12.75 12.25 13.625 12.25 15.375V17.125C12.25 18.875 13.125 19.75 14.875 19.75Z" stroke="white" stroke-width="1.5" stroke-miterlimit="10" stroke-linecap="round" stroke-linejoin="round"/>
<path d="M4.375 19.75H6.125C7.875 19.75 8.75 18.875 8.75 17.125V15.375C8.75 13.625 7.875 12.75 6.125 12.75H4.375C2.625 12.75 1.75 13.625 1.75 15.375V17.125C1.75 18.875 2.625 19.75 4.375 19.75Z" stroke="white" stroke-width="1.5" stroke-miterlimit="10" stroke-linecap="round" stroke-linejoin="round"/>
</svg>
