<svg width="150" height="250" viewBox="0 0 717 271" fill="none" xmlns="http://www.w3.org/2000/svg">
            <path d="M307.168 131V78.5H330.118C335.818 78.5 340.818 79.6 345.118 81.8C349.418 84 352.768 87.05 355.168 90.95C357.568 94.85 358.768 99.45 358.768 104.75C358.768 110 357.568 114.6 355.168 118.55C352.768 122.45 349.418 125.5 345.118 127.7C340.818 129.9 335.818 131 330.118 131H307.168ZM316.918 122.75H329.668C333.618 122.75 337.018 122 339.868 120.5C342.768 119 344.993 116.9 346.543 114.2C348.143 111.5 348.943 108.35 348.943 104.75C348.943 101.1 348.143 97.95 346.543 95.3C344.993 92.6 342.768 90.5 339.868 89C337.018 87.5 333.618 86.75 329.668 86.75H316.918V122.75ZM360.973 131L384.598 78.5H394.198L417.898 131H407.698L387.373 83.675H391.273L371.023 131H360.973ZM371.848 118.85L374.473 111.2H402.823L405.448 118.85H371.848ZM433.575 100.325H459.675V108.35H433.575V100.325ZM434.325 122.825H463.95V131H424.575V78.5H462.9V86.675H434.325V122.825ZM483.744 102.65H509.919V110.9H483.744V102.65ZM484.569 131H474.819V78.5H513.144V86.675H484.569V131ZM546.587 131.75C542.487 131.75 538.712 131.075 535.262 129.725C531.812 128.375 528.812 126.5 526.262 124.1C523.712 121.65 521.737 118.8 520.337 115.55C518.937 112.25 518.237 108.65 518.237 104.75C518.237 100.85 518.937 97.275 520.337 94.025C521.737 90.725 523.712 87.875 526.262 85.475C528.812 83.025 531.812 81.125 535.262 79.775C538.712 78.425 542.462 77.75 546.512 77.75C550.612 77.75 554.362 78.425 557.762 79.775C561.212 81.125 564.212 83.025 566.762 85.475C569.312 87.875 571.287 90.725 572.687 94.025C574.087 97.275 574.787 100.85 574.787 104.75C574.787 108.65 574.087 112.25 572.687 115.55C571.287 118.85 569.312 121.7 566.762 124.1C564.212 126.5 561.212 128.375 557.762 129.725C554.362 131.075 550.637 131.75 546.587 131.75ZM546.512 123.2C549.162 123.2 551.612 122.75 553.862 121.85C556.112 120.95 558.062 119.675 559.712 118.025C561.362 116.325 562.637 114.375 563.537 112.175C564.487 109.925 564.962 107.45 564.962 104.75C564.962 102.05 564.487 99.6 563.537 97.4C562.637 95.15 561.362 93.2 559.712 91.55C558.062 89.85 556.112 88.55 553.862 87.65C551.612 86.75 549.162 86.3 546.512 86.3C543.862 86.3 541.412 86.75 539.162 87.65C536.962 88.55 535.012 89.85 533.312 91.55C531.662 93.2 530.362 95.15 529.412 97.4C528.512 99.6 528.062 102.05 528.062 104.75C528.062 107.4 528.512 109.85 529.412 112.1C530.362 114.35 531.662 116.325 533.312 118.025C534.962 119.675 536.912 120.95 539.162 121.85C541.412 122.75 543.862 123.2 546.512 123.2ZM585.122 131V78.5H608.072C613.772 78.5 618.772 79.6 623.072 81.8C627.372 84 630.722 87.05 633.122 90.95C635.522 94.85 636.722 99.45 636.722 104.75C636.722 110 635.522 114.6 633.122 118.55C630.722 122.45 627.372 125.5 623.072 127.7C618.772 129.9 613.772 131 608.072 131H585.122ZM594.872 122.75H607.622C611.572 122.75 614.972 122 617.822 120.5C620.722 119 622.947 116.9 624.497 114.2C626.097 111.5 626.897 108.35 626.897 104.75C626.897 101.1 626.097 97.95 624.497 95.3C622.947 92.6 620.722 90.5 617.822 89C614.972 87.5 611.572 86.75 607.622 86.75H594.872V122.75ZM647.085 131V78.5H656.835V131H647.085ZM671.035 131V78.5H680.785V122.75H708.235V131H671.035Z" fill="#1578FD"/>
            <path d="M304.153 174V161.4H309.463C310.807 161.4 311.989 161.664 313.009 162.192C314.041 162.72 314.839 163.458 315.403 164.406C315.979 165.354 316.267 166.452 316.267 167.7C316.267 168.948 315.979 170.046 315.403 170.994C314.839 171.942 314.041 172.68 313.009 173.208C311.989 173.736 310.807 174 309.463 174H304.153ZM305.953 172.434H309.355C310.399 172.434 311.299 172.236 312.055 171.84C312.823 171.444 313.417 170.892 313.837 170.184C314.257 169.464 314.467 168.636 314.467 167.7C314.467 166.752 314.257 165.924 313.837 165.216C313.417 164.508 312.823 163.956 312.055 163.56C311.299 163.164 310.399 162.966 309.355 162.966H305.953V172.434ZM324.694 174V171.984L324.604 171.606V168.168C324.604 167.436 324.388 166.872 323.956 166.476C323.536 166.068 322.9 165.864 322.048 165.864C321.484 165.864 320.932 165.96 320.392 166.152C319.852 166.332 319.396 166.578 319.024 166.89L318.304 165.594C318.796 165.198 319.384 164.898 320.068 164.694C320.764 164.478 321.49 164.37 322.246 164.37C323.554 164.37 324.562 164.688 325.27 165.324C325.978 165.96 326.332 166.932 326.332 168.24V174H324.694ZM321.562 174.108C320.854 174.108 320.23 173.988 319.69 173.748C319.162 173.508 318.754 173.178 318.466 172.758C318.178 172.326 318.034 171.84 318.034 171.3C318.034 170.784 318.154 170.316 318.394 169.896C318.646 169.476 319.048 169.14 319.6 168.888C320.164 168.636 320.92 168.51 321.868 168.51H324.892V169.752H321.94C321.076 169.752 320.494 169.896 320.194 170.184C319.894 170.472 319.744 170.82 319.744 171.228C319.744 171.696 319.93 172.074 320.302 172.362C320.674 172.638 321.19 172.776 321.85 172.776C322.498 172.776 323.062 172.632 323.542 172.344C324.034 172.056 324.388 171.636 324.604 171.084L324.946 172.272C324.718 172.836 324.316 173.286 323.74 173.622C323.164 173.946 322.438 174.108 321.562 174.108ZM332.806 174.108C331.846 174.108 331.102 173.85 330.574 173.334C330.046 172.818 329.782 172.08 329.782 171.12V162.372H331.51V171.048C331.51 171.564 331.636 171.96 331.888 172.236C332.152 172.512 332.524 172.65 333.004 172.65C333.544 172.65 333.994 172.5 334.354 172.2L334.894 173.442C334.63 173.67 334.312 173.838 333.94 173.946C333.58 174.054 333.202 174.108 332.806 174.108ZM328.162 165.882V164.46H334.246V165.882H328.162ZM342.905 174V171.984L342.815 171.606V168.168C342.815 167.436 342.599 166.872 342.167 166.476C341.747 166.068 341.111 165.864 340.259 165.864C339.695 165.864 339.143 165.96 338.603 166.152C338.063 166.332 337.607 166.578 337.235 166.89L336.515 165.594C337.007 165.198 337.595 164.898 338.279 164.694C338.975 164.478 339.701 164.37 340.457 164.37C341.765 164.37 342.773 164.688 343.481 165.324C344.189 165.96 344.543 166.932 344.543 168.24V174H342.905ZM339.773 174.108C339.065 174.108 338.441 173.988 337.901 173.748C337.373 173.508 336.965 173.178 336.677 172.758C336.389 172.326 336.245 171.84 336.245 171.3C336.245 170.784 336.365 170.316 336.605 169.896C336.857 169.476 337.259 169.14 337.811 168.888C338.375 168.636 339.131 168.51 340.079 168.51H343.103V169.752H340.151C339.287 169.752 338.705 169.896 338.405 170.184C338.105 170.472 337.955 170.82 337.955 171.228C337.955 171.696 338.141 172.074 338.513 172.362C338.885 172.638 339.401 172.776 340.061 172.776C340.709 172.776 341.273 172.632 341.753 172.344C342.245 172.056 342.599 171.636 342.815 171.084L343.157 172.272C342.929 172.836 342.527 173.286 341.951 173.622C341.375 173.946 340.649 174.108 339.773 174.108ZM354.465 166.836H360.945V168.366H354.465V166.836ZM354.627 172.434H361.971V174H352.827V161.4H361.719V162.966H354.627V172.434ZM363.036 174L367.14 168.672L367.122 169.554L363.216 164.46H365.142L368.13 168.384H367.392L370.38 164.46H372.27L368.31 169.59L368.328 168.672L372.468 174H370.506L367.356 169.824L368.058 169.932L364.962 174H363.036ZM377.63 174.108C376.67 174.108 375.926 173.85 375.398 173.334C374.87 172.818 374.606 172.08 374.606 171.12V162.372H376.334V171.048C376.334 171.564 376.46 171.96 376.712 172.236C376.976 172.512 377.348 172.65 377.828 172.65C378.368 172.65 378.818 172.5 379.178 172.2L379.718 173.442C379.454 173.67 379.136 173.838 378.764 173.946C378.404 174.054 378.026 174.108 377.63 174.108ZM372.986 165.882V164.46H379.07V165.882H372.986ZM381.807 174V164.46H383.463V167.052L383.301 166.404C383.565 165.744 384.009 165.24 384.633 164.892C385.257 164.544 386.025 164.37 386.937 164.37V166.044C386.865 166.032 386.793 166.026 386.721 166.026C386.661 166.026 386.601 166.026 386.541 166.026C385.617 166.026 384.885 166.302 384.345 166.854C383.805 167.406 383.535 168.204 383.535 169.248V174H381.807ZM394.286 174V171.984L394.196 171.606V168.168C394.196 167.436 393.98 166.872 393.548 166.476C393.128 166.068 392.492 165.864 391.64 165.864C391.076 165.864 390.524 165.96 389.984 166.152C389.444 166.332 388.988 166.578 388.616 166.89L387.896 165.594C388.388 165.198 388.976 164.898 389.66 164.694C390.356 164.478 391.082 164.37 391.838 164.37C393.146 164.37 394.154 164.688 394.862 165.324C395.57 165.96 395.924 166.932 395.924 168.24V174H394.286ZM391.154 174.108C390.446 174.108 389.822 173.988 389.282 173.748C388.754 173.508 388.346 173.178 388.058 172.758C387.77 172.326 387.626 171.84 387.626 171.3C387.626 170.784 387.746 170.316 387.986 169.896C388.238 169.476 388.64 169.14 389.192 168.888C389.756 168.636 390.512 168.51 391.46 168.51H394.484V169.752H391.532C390.668 169.752 390.086 169.896 389.786 170.184C389.486 170.472 389.336 170.82 389.336 171.228C389.336 171.696 389.522 172.074 389.894 172.362C390.266 172.638 390.782 172.776 391.442 172.776C392.09 172.776 392.654 172.632 393.134 172.344C393.626 172.056 393.98 171.636 394.196 171.084L394.538 172.272C394.31 172.836 393.908 173.286 393.332 173.622C392.756 173.946 392.03 174.108 391.154 174.108ZM403.279 174.108C402.307 174.108 401.437 173.898 400.669 173.478C399.913 173.058 399.319 172.482 398.887 171.75C398.455 171.018 398.239 170.178 398.239 169.23C398.239 168.282 398.455 167.442 398.887 166.71C399.319 165.978 399.913 165.408 400.669 165C401.437 164.58 402.307 164.37 403.279 164.37C404.143 164.37 404.911 164.544 405.583 164.892C406.267 165.228 406.795 165.732 407.167 166.404L405.853 167.25C405.541 166.782 405.157 166.44 404.701 166.224C404.257 165.996 403.777 165.882 403.261 165.882C402.637 165.882 402.079 166.02 401.587 166.296C401.095 166.572 400.705 166.962 400.417 167.466C400.129 167.958 399.985 168.546 399.985 169.23C399.985 169.914 400.129 170.508 400.417 171.012C400.705 171.516 401.095 171.906 401.587 172.182C402.079 172.458 402.637 172.596 403.261 172.596C403.777 172.596 404.257 172.488 404.701 172.272C405.157 172.044 405.541 171.696 405.853 171.228L407.167 172.056C406.795 172.716 406.267 173.226 405.583 173.586C404.911 173.934 404.143 174.108 403.279 174.108ZM412.804 174.108C411.844 174.108 411.1 173.85 410.572 173.334C410.044 172.818 409.78 172.08 409.78 171.12V162.372H411.508V171.048C411.508 171.564 411.634 171.96 411.886 172.236C412.15 172.512 412.522 172.65 413.002 172.65C413.542 172.65 413.992 172.5 414.352 172.2L414.892 173.442C414.628 173.67 414.31 173.838 413.938 173.946C413.578 174.054 413.2 174.108 412.804 174.108ZM408.16 165.882V164.46H414.244V165.882H408.16ZM416.981 174V164.46H418.709V174H416.981ZM417.845 162.624C417.509 162.624 417.227 162.516 416.999 162.3C416.783 162.084 416.675 161.82 416.675 161.508C416.675 161.184 416.783 160.914 416.999 160.698C417.227 160.482 417.509 160.374 417.845 160.374C418.181 160.374 418.457 160.482 418.673 160.698C418.901 160.902 419.015 161.16 419.015 161.472C419.015 161.796 418.907 162.072 418.691 162.3C418.475 162.516 418.193 162.624 417.845 162.624ZM426.094 174.108C425.134 174.108 424.282 173.898 423.538 173.478C422.794 173.058 422.206 172.482 421.774 171.75C421.342 171.006 421.126 170.166 421.126 169.23C421.126 168.282 421.342 167.442 421.774 166.71C422.206 165.978 422.794 165.408 423.538 165C424.282 164.58 425.134 164.37 426.094 164.37C427.042 164.37 427.888 164.58 428.632 165C429.388 165.408 429.976 165.978 430.396 166.71C430.828 167.43 431.044 168.27 431.044 169.23C431.044 170.178 430.828 171.018 430.396 171.75C429.976 172.482 429.388 173.058 428.632 173.478C427.888 173.898 427.042 174.108 426.094 174.108ZM426.094 172.596C426.706 172.596 427.252 172.458 427.732 172.182C428.224 171.906 428.608 171.516 428.884 171.012C429.16 170.496 429.298 169.902 429.298 169.23C429.298 168.546 429.16 167.958 428.884 167.466C428.608 166.962 428.224 166.572 427.732 166.296C427.252 166.02 426.706 165.882 426.094 165.882C425.482 165.882 424.936 166.02 424.456 166.296C423.976 166.572 423.592 166.962 423.304 167.466C423.016 167.958 422.872 168.546 422.872 169.23C422.872 169.902 423.016 170.496 423.304 171.012C423.592 171.516 423.976 171.906 424.456 172.182C424.936 172.458 425.482 172.596 426.094 172.596ZM438.528 164.37C439.308 164.37 439.992 164.52 440.58 164.82C441.18 165.12 441.648 165.576 441.984 166.188C442.32 166.8 442.488 167.574 442.488 168.51V174H440.76V168.708C440.76 167.784 440.532 167.088 440.076 166.62C439.632 166.152 439.002 165.918 438.186 165.918C437.574 165.918 437.04 166.038 436.584 166.278C436.128 166.518 435.774 166.872 435.522 167.34C435.282 167.808 435.162 168.39 435.162 169.086V174H433.434V164.46H435.09V167.034L434.82 166.35C435.132 165.726 435.612 165.24 436.26 164.892C436.908 164.544 437.664 164.37 438.528 164.37ZM450.772 174V163.614C450.772 162.678 451.042 161.934 451.582 161.382C452.134 160.818 452.914 160.536 453.922 160.536C454.294 160.536 454.648 160.584 454.984 160.68C455.332 160.764 455.626 160.902 455.866 161.094L455.344 162.408C455.164 162.264 454.96 162.156 454.732 162.084C454.504 162 454.264 161.958 454.012 161.958C453.508 161.958 453.124 162.102 452.86 162.39C452.596 162.666 452.464 163.08 452.464 163.632V164.91L452.5 165.702V174H450.772ZM449.152 165.882V164.46H455.236V165.882H449.152ZM456.866 174V164.46H458.522V167.052L458.36 166.404C458.624 165.744 459.068 165.24 459.692 164.892C460.316 164.544 461.084 164.37 461.996 164.37V166.044C461.924 166.032 461.852 166.026 461.78 166.026C461.72 166.026 461.66 166.026 461.6 166.026C460.676 166.026 459.944 166.302 459.404 166.854C458.864 167.406 458.594 168.204 458.594 169.248V174H456.866ZM468.123 174.108C467.163 174.108 466.311 173.898 465.567 173.478C464.823 173.058 464.235 172.482 463.803 171.75C463.371 171.006 463.155 170.166 463.155 169.23C463.155 168.282 463.371 167.442 463.803 166.71C464.235 165.978 464.823 165.408 465.567 165C466.311 164.58 467.163 164.37 468.123 164.37C469.071 164.37 469.917 164.58 470.661 165C471.417 165.408 472.005 165.978 472.425 166.71C472.857 167.43 473.073 168.27 473.073 169.23C473.073 170.178 472.857 171.018 472.425 171.75C472.005 172.482 471.417 173.058 470.661 173.478C469.917 173.898 469.071 174.108 468.123 174.108ZM468.123 172.596C468.735 172.596 469.281 172.458 469.761 172.182C470.253 171.906 470.637 171.516 470.913 171.012C471.189 170.496 471.327 169.902 471.327 169.23C471.327 168.546 471.189 167.958 470.913 167.466C470.637 166.962 470.253 166.572 469.761 166.296C469.281 166.02 468.735 165.882 468.123 165.882C467.511 165.882 466.965 166.02 466.485 166.296C466.005 166.572 465.621 166.962 465.333 167.466C465.045 167.958 464.901 168.546 464.901 169.23C464.901 169.902 465.045 170.496 465.333 171.012C465.621 171.516 466.005 171.906 466.485 172.182C466.965 172.458 467.511 172.596 468.123 172.596ZM487.397 164.37C488.165 164.37 488.843 164.52 489.431 164.82C490.019 165.12 490.475 165.576 490.799 166.188C491.135 166.8 491.303 167.574 491.303 168.51V174H489.575V168.708C489.575 167.784 489.359 167.088 488.927 166.62C488.495 166.152 487.889 165.918 487.109 165.918C486.533 165.918 486.029 166.038 485.597 166.278C485.165 166.518 484.829 166.872 484.589 167.34C484.361 167.808 484.247 168.39 484.247 169.086V174H482.519V168.708C482.519 167.784 482.303 167.088 481.871 166.62C481.451 166.152 480.845 165.918 480.053 165.918C479.489 165.918 478.991 166.038 478.559 166.278C478.127 166.518 477.791 166.872 477.551 167.34C477.311 167.808 477.191 168.39 477.191 169.086V174H475.463V164.46H477.119V166.998L476.849 166.35C477.149 165.726 477.611 165.24 478.235 164.892C478.859 164.544 479.585 164.37 480.413 164.37C481.325 164.37 482.111 164.598 482.771 165.054C483.431 165.498 483.863 166.176 484.067 167.088L483.365 166.8C483.653 166.068 484.157 165.48 484.877 165.036C485.597 164.592 486.437 164.37 487.397 164.37ZM503.259 174.108C502.335 174.108 501.507 173.904 500.775 173.496C500.055 173.088 499.485 172.518 499.065 171.786C498.645 171.054 498.435 170.202 498.435 169.23C498.435 168.258 498.645 167.412 499.065 166.692C499.485 165.96 500.055 165.39 500.775 164.982C501.507 164.574 502.335 164.37 503.259 164.37C504.063 164.37 504.789 164.55 505.437 164.91C506.085 165.27 506.601 165.81 506.985 166.53C507.381 167.25 507.579 168.15 507.579 169.23C507.579 170.31 507.387 171.21 507.003 171.93C506.631 172.65 506.121 173.196 505.473 173.568C504.825 173.928 504.087 174.108 503.259 174.108ZM503.403 172.596C504.003 172.596 504.543 172.458 505.023 172.182C505.515 171.906 505.899 171.516 506.175 171.012C506.463 170.496 506.607 169.902 506.607 169.23C506.607 168.546 506.463 167.958 506.175 167.466C505.899 166.962 505.515 166.572 505.023 166.296C504.543 166.02 504.003 165.882 503.403 165.882C502.791 165.882 502.245 166.02 501.765 166.296C501.285 166.572 500.901 166.962 500.613 167.466C500.325 167.958 500.181 168.546 500.181 169.23C500.181 169.902 500.325 170.496 500.613 171.012C500.901 171.516 501.285 171.906 501.765 172.182C502.245 172.458 502.791 172.596 503.403 172.596ZM506.661 174V171.426L506.769 169.212L506.589 166.998V160.644H508.317V174H506.661ZM515.672 174.108C514.712 174.108 513.86 173.898 513.116 173.478C512.372 173.058 511.784 172.482 511.352 171.75C510.92 171.006 510.704 170.166 510.704 169.23C510.704 168.282 510.92 167.442 511.352 166.71C511.784 165.978 512.372 165.408 513.116 165C513.86 164.58 514.712 164.37 515.672 164.37C516.62 164.37 517.466 164.58 518.21 165C518.966 165.408 519.554 165.978 519.974 166.71C520.406 167.43 520.622 168.27 520.622 169.23C520.622 170.178 520.406 171.018 519.974 171.75C519.554 172.482 518.966 173.058 518.21 173.478C517.466 173.898 516.62 174.108 515.672 174.108ZM515.672 172.596C516.284 172.596 516.83 172.458 517.31 172.182C517.802 171.906 518.186 171.516 518.462 171.012C518.738 170.496 518.876 169.902 518.876 169.23C518.876 168.546 518.738 167.958 518.462 167.466C518.186 166.962 517.802 166.572 517.31 166.296C516.83 166.02 516.284 165.882 515.672 165.882C515.06 165.882 514.514 166.02 514.034 166.296C513.554 166.572 513.17 166.962 512.882 167.466C512.594 167.958 512.45 168.546 512.45 169.23C512.45 169.902 512.594 170.496 512.882 171.012C513.17 171.516 513.554 171.906 514.034 172.182C514.514 172.458 515.06 172.596 515.672 172.596ZM527.17 174.108C526.198 174.108 525.328 173.898 524.56 173.478C523.804 173.058 523.21 172.482 522.778 171.75C522.346 171.018 522.13 170.178 522.13 169.23C522.13 168.282 522.346 167.442 522.778 166.71C523.21 165.978 523.804 165.408 524.56 165C525.328 164.58 526.198 164.37 527.17 164.37C528.034 164.37 528.802 164.544 529.474 164.892C530.158 165.228 530.686 165.732 531.058 166.404L529.744 167.25C529.432 166.782 529.048 166.44 528.592 166.224C528.148 165.996 527.668 165.882 527.152 165.882C526.528 165.882 525.97 166.02 525.478 166.296C524.986 166.572 524.596 166.962 524.308 167.466C524.02 167.958 523.876 168.546 523.876 169.23C523.876 169.914 524.02 170.508 524.308 171.012C524.596 171.516 524.986 171.906 525.478 172.182C525.97 172.458 526.528 172.596 527.152 172.596C527.668 172.596 528.148 172.488 528.592 172.272C529.048 172.044 529.432 171.696 529.744 171.228L531.058 172.056C530.686 172.716 530.158 173.226 529.474 173.586C528.802 173.934 528.034 174.108 527.17 174.108ZM537.309 174.108C536.493 174.108 535.773 173.958 535.149 173.658C534.537 173.358 534.057 172.902 533.709 172.29C533.373 171.666 533.205 170.886 533.205 169.95V164.46H534.933V169.752C534.933 170.688 535.155 171.39 535.599 171.858C536.055 172.326 536.691 172.56 537.507 172.56C538.107 172.56 538.629 172.44 539.073 172.2C539.517 171.948 539.859 171.588 540.099 171.12C540.339 170.64 540.459 170.064 540.459 169.392V164.46H542.187V174H540.549V171.426L540.819 172.11C540.507 172.746 540.039 173.238 539.415 173.586C538.791 173.934 538.089 174.108 537.309 174.108ZM557.411 164.37C558.179 164.37 558.857 164.52 559.445 164.82C560.033 165.12 560.489 165.576 560.813 166.188C561.149 166.8 561.317 167.574 561.317 168.51V174H559.589V168.708C559.589 167.784 559.373 167.088 558.941 166.62C558.509 166.152 557.903 165.918 557.123 165.918C556.547 165.918 556.043 166.038 555.611 166.278C555.179 166.518 554.843 166.872 554.603 167.34C554.375 167.808 554.261 168.39 554.261 169.086V174H552.533V168.708C552.533 167.784 552.317 167.088 551.885 166.62C551.465 166.152 550.859 165.918 550.067 165.918C549.503 165.918 549.005 166.038 548.573 166.278C548.141 166.518 547.805 166.872 547.565 167.34C547.325 167.808 547.205 168.39 547.205 169.086V174H545.477V164.46H547.133V166.998L546.863 166.35C547.163 165.726 547.625 165.24 548.249 164.892C548.873 164.544 549.599 164.37 550.427 164.37C551.339 164.37 552.125 164.598 552.785 165.054C553.445 165.498 553.877 166.176 554.081 167.088L553.379 166.8C553.667 166.068 554.171 165.48 554.891 165.036C555.611 164.592 556.451 164.37 557.411 164.37ZM568.744 174.108C567.724 174.108 566.824 173.898 566.044 173.478C565.276 173.058 564.676 172.482 564.244 171.75C563.824 171.018 563.614 170.178 563.614 169.23C563.614 168.282 563.818 167.442 564.226 166.71C564.646 165.978 565.216 165.408 565.936 165C566.668 164.58 567.49 164.37 568.402 164.37C569.326 164.37 570.142 164.574 570.85 164.982C571.558 165.39 572.11 165.966 572.506 166.71C572.914 167.442 573.118 168.3 573.118 169.284C573.118 169.356 573.112 169.44 573.1 169.536C573.1 169.632 573.094 169.722 573.082 169.806H564.964V168.564H572.182L571.48 168.996C571.492 168.384 571.366 167.838 571.102 167.358C570.838 166.878 570.472 166.506 570.004 166.242C569.548 165.966 569.014 165.828 568.402 165.828C567.802 165.828 567.268 165.966 566.8 166.242C566.332 166.506 565.966 166.884 565.702 167.376C565.438 167.856 565.306 168.408 565.306 169.032V169.32C565.306 169.956 565.45 170.526 565.738 171.03C566.038 171.522 566.452 171.906 566.98 172.182C567.508 172.458 568.114 172.596 568.798 172.596C569.362 172.596 569.872 172.5 570.328 172.308C570.796 172.116 571.204 171.828 571.552 171.444L572.506 172.56C572.074 173.064 571.534 173.448 570.886 173.712C570.25 173.976 569.536 174.108 568.744 174.108ZM580.612 164.37C581.392 164.37 582.076 164.52 582.664 164.82C583.264 165.12 583.732 165.576 584.068 166.188C584.404 166.8 584.572 167.574 584.572 168.51V174H582.844V168.708C582.844 167.784 582.616 167.088 582.16 166.62C581.716 166.152 581.086 165.918 580.27 165.918C579.658 165.918 579.124 166.038 578.668 166.278C578.212 166.518 577.858 166.872 577.606 167.34C577.366 167.808 577.246 168.39 577.246 169.086V174H575.518V164.46H577.174V167.034L576.904 166.35C577.216 165.726 577.696 165.24 578.344 164.892C578.992 164.544 579.748 164.37 580.612 164.37ZM591.046 174.108C590.086 174.108 589.342 173.85 588.814 173.334C588.286 172.818 588.022 172.08 588.022 171.12V162.372H589.75V171.048C589.75 171.564 589.876 171.96 590.128 172.236C590.392 172.512 590.764 172.65 591.244 172.65C591.784 172.65 592.234 172.5 592.594 172.2L593.134 173.442C592.87 173.67 592.552 173.838 592.18 173.946C591.82 174.054 591.442 174.108 591.046 174.108ZM586.402 165.882V164.46H592.486V165.882H586.402ZM597.959 174.108C597.167 174.108 596.411 174 595.691 173.784C594.983 173.568 594.425 173.304 594.017 172.992L594.737 171.624C595.145 171.9 595.649 172.134 596.249 172.326C596.849 172.518 597.461 172.614 598.085 172.614C598.889 172.614 599.465 172.5 599.813 172.272C600.173 172.044 600.353 171.726 600.353 171.318C600.353 171.018 600.245 170.784 600.029 170.616C599.813 170.448 599.525 170.322 599.165 170.238C598.817 170.154 598.427 170.082 597.995 170.022C597.563 169.95 597.131 169.866 596.699 169.77C596.267 169.662 595.871 169.518 595.511 169.338C595.151 169.146 594.863 168.888 594.647 168.564C594.431 168.228 594.323 167.784 594.323 167.232C594.323 166.656 594.485 166.152 594.809 165.72C595.133 165.288 595.589 164.958 596.177 164.73C596.777 164.49 597.485 164.37 598.301 164.37C598.925 164.37 599.555 164.448 600.191 164.604C600.839 164.748 601.367 164.958 601.775 165.234L601.037 166.602C600.605 166.314 600.155 166.116 599.687 166.008C599.219 165.9 598.751 165.846 598.283 165.846C597.527 165.846 596.963 165.972 596.591 166.224C596.219 166.464 596.033 166.776 596.033 167.16C596.033 167.484 596.141 167.736 596.357 167.916C596.585 168.084 596.873 168.216 597.221 168.312C597.581 168.408 597.977 168.492 598.409 168.564C598.841 168.624 599.273 168.708 599.705 168.816C600.137 168.912 600.527 169.05 600.875 169.23C601.235 169.41 601.523 169.662 601.739 169.986C601.967 170.31 602.081 170.742 602.081 171.282C602.081 171.858 601.913 172.356 601.577 172.776C601.241 173.196 600.767 173.526 600.155 173.766C599.543 173.994 598.811 174.108 597.959 174.108ZM609.327 174V161.4H611.127V174H609.327ZM619.741 164.37C620.521 164.37 621.205 164.52 621.793 164.82C622.393 165.12 622.861 165.576 623.197 166.188C623.533 166.8 623.701 167.574 623.701 168.51V174H621.973V168.708C621.973 167.784 621.745 167.088 621.289 166.62C620.845 166.152 620.215 165.918 619.399 165.918C618.787 165.918 618.253 166.038 617.797 166.278C617.341 166.518 616.987 166.872 616.735 167.34C616.495 167.808 616.375 168.39 616.375 169.086V174H614.647V164.46H616.303V167.034L616.033 166.35C616.345 165.726 616.825 165.24 617.473 164.892C618.121 164.544 618.877 164.37 619.741 164.37ZM630.175 174.108C629.215 174.108 628.471 173.85 627.943 173.334C627.415 172.818 627.151 172.08 627.151 171.12V162.372H628.879V171.048C628.879 171.564 629.005 171.96 629.257 172.236C629.521 172.512 629.893 172.65 630.373 172.65C630.913 172.65 631.363 172.5 631.723 172.2L632.263 173.442C631.999 173.67 631.681 173.838 631.309 173.946C630.949 174.054 630.571 174.108 630.175 174.108ZM625.531 165.882V164.46H631.615V165.882H625.531ZM638.283 174.108C637.263 174.108 636.363 173.898 635.583 173.478C634.815 173.058 634.215 172.482 633.783 171.75C633.363 171.018 633.153 170.178 633.153 169.23C633.153 168.282 633.357 167.442 633.765 166.71C634.185 165.978 634.755 165.408 635.475 165C636.207 164.58 637.029 164.37 637.941 164.37C638.865 164.37 639.681 164.574 640.389 164.982C641.097 165.39 641.649 165.966 642.045 166.71C642.453 167.442 642.657 168.3 642.657 169.284C642.657 169.356 642.651 169.44 642.639 169.536C642.639 169.632 642.633 169.722 642.621 169.806H634.503V168.564H641.721L641.019 168.996C641.031 168.384 640.905 167.838 640.641 167.358C640.377 166.878 640.011 166.506 639.543 166.242C639.087 165.966 638.553 165.828 637.941 165.828C637.341 165.828 636.807 165.966 636.339 166.242C635.871 166.506 635.505 166.884 635.241 167.376C634.977 167.856 634.845 168.408 634.845 169.032V169.32C634.845 169.956 634.989 170.526 635.277 171.03C635.577 171.522 635.991 171.906 636.519 172.182C637.047 172.458 637.653 172.596 638.337 172.596C638.901 172.596 639.411 172.5 639.867 172.308C640.335 172.116 640.743 171.828 641.091 171.444L642.045 172.56C641.613 173.064 641.073 173.448 640.425 173.712C639.789 173.976 639.075 174.108 638.283 174.108ZM645.057 174V160.644H646.785V174H645.057ZM650.084 174V160.644H651.812V174H650.084ZM655.112 174V164.46H656.84V174H655.112ZM655.976 162.624C655.64 162.624 655.358 162.516 655.13 162.3C654.914 162.084 654.806 161.82 654.806 161.508C654.806 161.184 654.914 160.914 655.13 160.698C655.358 160.482 655.64 160.374 655.976 160.374C656.312 160.374 656.588 160.482 656.804 160.698C657.032 160.902 657.146 161.16 657.146 161.472C657.146 161.796 657.038 162.072 656.822 162.3C656.606 162.516 656.324 162.624 655.976 162.624ZM664.315 177.6C663.439 177.6 662.587 177.474 661.759 177.222C660.943 176.982 660.277 176.634 659.761 176.178L660.589 174.846C661.033 175.23 661.579 175.53 662.227 175.746C662.875 175.974 663.553 176.088 664.261 176.088C665.389 176.088 666.217 175.824 666.745 175.296C667.273 174.768 667.537 173.964 667.537 172.884V170.868L667.717 168.978L667.627 167.07V164.46H669.265V172.704C669.265 174.384 668.845 175.62 668.005 176.412C667.165 177.204 665.935 177.6 664.315 177.6ZM664.099 173.604C663.175 173.604 662.347 173.412 661.615 173.028C660.895 172.632 660.319 172.086 659.887 171.39C659.467 170.694 659.257 169.89 659.257 168.978C659.257 168.054 659.467 167.25 659.887 166.566C660.319 165.87 660.895 165.33 661.615 164.946C662.347 164.562 663.175 164.37 664.099 164.37C664.915 164.37 665.659 164.538 666.331 164.874C667.003 165.198 667.537 165.702 667.933 166.386C668.341 167.07 668.545 167.934 668.545 168.978C668.545 170.01 668.341 170.868 667.933 171.552C667.537 172.236 667.003 172.752 666.331 173.1C665.659 173.436 664.915 173.604 664.099 173.604ZM664.297 172.092C664.933 172.092 665.497 171.96 665.989 171.696C666.481 171.432 666.865 171.066 667.141 170.598C667.429 170.13 667.573 169.59 667.573 168.978C667.573 168.366 667.429 167.826 667.141 167.358C666.865 166.89 666.481 166.53 665.989 166.278C665.497 166.014 664.933 165.882 664.297 165.882C663.661 165.882 663.091 166.014 662.587 166.278C662.095 166.53 661.705 166.89 661.417 167.358C661.141 167.826 661.003 168.366 661.003 168.978C661.003 169.59 661.141 170.13 661.417 170.598C661.705 171.066 662.095 171.432 662.587 171.696C663.091 171.96 663.661 172.092 664.297 172.092ZM676.815 174.108C675.795 174.108 674.895 173.898 674.115 173.478C673.347 173.058 672.747 172.482 672.315 171.75C671.895 171.018 671.685 170.178 671.685 169.23C671.685 168.282 671.889 167.442 672.297 166.71C672.717 165.978 673.287 165.408 674.007 165C674.739 164.58 675.561 164.37 676.473 164.37C677.397 164.37 678.213 164.574 678.921 164.982C679.629 165.39 680.181 165.966 680.577 166.71C680.985 167.442 681.189 168.3 681.189 169.284C681.189 169.356 681.183 169.44 681.171 169.536C681.171 169.632 681.165 169.722 681.153 169.806H673.035V168.564H680.253L679.551 168.996C679.563 168.384 679.437 167.838 679.173 167.358C678.909 166.878 678.543 166.506 678.075 166.242C677.619 165.966 677.085 165.828 676.473 165.828C675.873 165.828 675.339 165.966 674.871 166.242C674.403 166.506 674.037 166.884 673.773 167.376C673.509 167.856 673.377 168.408 673.377 169.032V169.32C673.377 169.956 673.521 170.526 673.809 171.03C674.109 171.522 674.523 171.906 675.051 172.182C675.579 172.458 676.185 172.596 676.869 172.596C677.433 172.596 677.943 172.5 678.399 172.308C678.867 172.116 679.275 171.828 679.623 171.444L680.577 172.56C680.145 173.064 679.605 173.448 678.957 173.712C678.321 173.976 677.607 174.108 676.815 174.108ZM688.682 164.37C689.462 164.37 690.146 164.52 690.734 164.82C691.334 165.12 691.802 165.576 692.138 166.188C692.474 166.8 692.642 167.574 692.642 168.51V174H690.914V168.708C690.914 167.784 690.686 167.088 690.23 166.62C689.786 166.152 689.156 165.918 688.34 165.918C687.728 165.918 687.194 166.038 686.738 166.278C686.282 166.518 685.928 166.872 685.676 167.34C685.436 167.808 685.316 168.39 685.316 169.086V174H683.588V164.46H685.244V167.034L684.974 166.35C685.286 165.726 685.766 165.24 686.414 164.892C687.062 164.544 687.818 164.37 688.682 164.37ZM699.116 174.108C698.156 174.108 697.412 173.85 696.884 173.334C696.356 172.818 696.092 172.08 696.092 171.12V162.372H697.82V171.048C697.82 171.564 697.946 171.96 698.198 172.236C698.462 172.512 698.834 172.65 699.314 172.65C699.854 172.65 700.304 172.5 700.664 172.2L701.204 173.442C700.94 173.67 700.622 173.838 700.25 173.946C699.89 174.054 699.512 174.108 699.116 174.108ZM694.472 165.882V164.46H700.556V165.882H694.472ZM703.293 174V160.644H705.021V174H703.293ZM708.735 177.6C708.279 177.6 707.835 177.522 707.403 177.366C706.971 177.222 706.599 177.006 706.287 176.718L707.025 175.422C707.265 175.65 707.529 175.824 707.817 175.944C708.105 176.064 708.411 176.124 708.735 176.124C709.155 176.124 709.503 176.016 709.779 175.8C710.055 175.584 710.313 175.2 710.553 174.648L711.147 173.334L711.327 173.118L715.071 164.46H716.763L712.137 174.954C711.861 175.626 711.549 176.154 711.201 176.538C710.865 176.922 710.493 177.192 710.085 177.348C709.677 177.516 709.227 177.6 708.735 177.6ZM711.003 174.306L706.647 164.46H708.447L712.155 172.956L711.003 174.306Z" fill="#1578FD"/>
            <circle cx="135.5" cy="135.5" r="135.5" transform="rotate(180 135.5 135.5)" fill="#1578FD"/>
            <path fill-rule="evenodd" clip-rule="evenodd" d="M93.7109 210.216H136.061C177.558 210.216 211.198 176.576 211.198 135.078C211.198 93.5814 177.558 59.9414 136.061 59.9414H93.7109V95.9414H136.061C157.675 95.9414 175.198 113.464 175.198 135.078C175.198 156.693 157.675 174.216 136.061 174.216H93.7109V210.216Z" fill="white"/>
            <path d="M117.412 108.905L138.938 134.758L117.412 160.61L151.963 134.758L117.412 108.905Z" fill="white"/>
            <path d="M93.7109 108.905L115.237 134.758L93.7109 160.61L128.274 134.758L93.7109 108.905Z" fill="white"/>
            </svg>
        