<svg width="21" height="22" viewBox="0 0 21 22" fill="none" xmlns="http://www.w3.org/2000/svg">
<path d="M7.4375 17.0987H7C3.5 17.0987 1.75 16.2237 1.75 11.8487V7.47372C1.75 3.97372 3.5 2.22372 7 2.22372H14C17.5 2.22372 19.25 3.97372 19.25 7.47372V11.8487C19.25 15.3487 17.5 17.0987 14 17.0987H13.5625C13.2912 17.0987 13.0288 17.23 12.8625 17.4487L11.55 19.1987C10.9725 19.9687 10.0275 19.9687 9.44999 19.1987L8.13749 17.4487C7.99749 17.2562 7.6825 17.0987 7.4375 17.0987Z" stroke="white" stroke-width="1.5" stroke-miterlimit="10" stroke-linecap="round" stroke-linejoin="round"/>
<path d="M7 8.11252L5.25 9.86252L7 11.6125" stroke="white" stroke-width="1.5" stroke-miterlimit="10" stroke-linecap="round" stroke-linejoin="round"/>
<path d="M14 8.11252L15.75 9.86252L14 11.6125" stroke="white" stroke-width="1.5" stroke-miterlimit="10" stroke-linecap="round" stroke-linejoin="round"/>
<path d="M11.375 7.82375L9.625 11.9013" stroke="white" stroke-width="1.5" stroke-miterlimit="10" stroke-linecap="round" stroke-linejoin="round"/>
</svg>
