<svg width="150" height="40" viewBox="0 0 630 149" fill="none" xmlns="http://www.w3.org/2000/svg">
<path d="M8.3 72V2H40.1C47.7 2 54.4 3.46666 60.2 6.4C66 9.26666 70.5333 13.3 73.8 18.5C77.0667 23.7 78.7 29.8667 78.7 37C78.7 44.0667 77.0667 50.2333 73.8 55.5C70.5333 60.7 66 64.7667 60.2 67.7C54.4 70.5667 47.7 72 40.1 72H8.3ZM24.5 58.7H39.3C43.9667 58.7 48 57.8333 51.4 56.1C54.8667 54.3 57.5333 51.7667 59.4 48.5C61.3333 45.2333 62.3 41.4 62.3 37C62.3 32.5333 61.3333 28.7 59.4 25.5C57.5333 22.2333 54.8667 19.7333 51.4 18C48 16.2 43.9667 15.3 39.3 15.3H24.5V58.7ZM91.7406 72L122.941 2H138.941L170.241 72H153.241L127.641 10.2H134.041L108.341 72H91.7406ZM107.341 57L111.641 44.7H147.641L152.041 57H107.341ZM203.403 30.2H237.103V42.8H203.403V30.2ZM204.603 59H242.703V72H188.503V2H241.403V15H204.603V59ZM281.593 33.5H315.193V46.5H281.593V33.5ZM282.793 72H266.593V2H319.493V15H282.793V72ZM374.777 73.2C369.243 73.2 364.11 72.3 359.377 70.5C354.71 68.7 350.643 66.1667 347.177 62.9C343.777 59.6333 341.11 55.8 339.177 51.4C337.31 47 336.377 42.2 336.377 37C336.377 31.8 337.31 27 339.177 22.6C341.11 18.2 343.81 14.3667 347.277 11.1C350.743 7.83333 354.81 5.29999 359.477 3.49999C364.143 1.7 369.21 0.799999 374.677 0.799999C380.21 0.799999 385.277 1.7 389.877 3.49999C394.543 5.29999 398.577 7.83333 401.977 11.1C405.443 14.3667 408.143 18.2 410.077 22.6C412.01 26.9333 412.977 31.7333 412.977 37C412.977 42.2 412.01 47.0333 410.077 51.5C408.143 55.9 405.443 59.7333 401.977 63C398.577 66.2 394.543 68.7 389.877 70.5C385.277 72.3 380.243 73.2 374.777 73.2ZM374.677 59.4C377.81 59.4 380.677 58.8667 383.277 57.8C385.943 56.7333 388.277 55.2 390.277 53.2C392.277 51.2 393.81 48.8333 394.877 46.1C396.01 43.3667 396.577 40.3333 396.577 37C396.577 33.6667 396.01 30.6333 394.877 27.9C393.81 25.1667 392.277 22.8 390.277 20.8C388.343 18.8 386.043 17.2667 383.377 16.2C380.71 15.1333 377.81 14.6 374.677 14.6C371.543 14.6 368.643 15.1333 365.977 16.2C363.377 17.2667 361.077 18.8 359.077 20.8C357.077 22.8 355.51 25.1667 354.377 27.9C353.31 30.6333 352.777 33.6667 352.777 37C352.777 40.2667 353.31 43.3 354.377 46.1C355.51 48.8333 357.043 51.2 358.977 53.2C360.977 55.2 363.31 56.7333 365.977 57.8C368.643 58.8667 371.543 59.4 374.677 59.4ZM436.152 72V2H467.952C475.552 2 482.252 3.46666 488.052 6.4C493.852 9.26666 498.385 13.3 501.652 18.5C504.918 23.7 506.552 29.8667 506.552 37C506.552 44.0667 504.918 50.2333 501.652 55.5C498.385 60.7 493.852 64.7667 488.052 67.7C482.252 70.5667 475.552 72 467.952 72H436.152ZM452.352 58.7H467.152C471.818 58.7 475.852 57.8333 479.252 56.1C482.718 54.3 485.385 51.7667 487.252 48.5C489.185 45.2333 490.152 41.4 490.152 37C490.152 32.5333 489.185 28.7 487.252 25.5C485.385 22.2333 482.718 19.7333 479.252 18C475.852 16.2 471.818 15.3 467.152 15.3H452.352V58.7ZM529.769 72V2H545.969V72H529.769ZM573.581 72V2H589.781V58.8H624.881V72H573.581Z" fill="#1578FD"/>
<path d="M8.52 132V115.2H15.6C17.392 115.2 18.968 115.552 20.328 116.256C21.704 116.96 22.768 117.944 23.52 119.208C24.288 120.472 24.672 121.936 24.672 123.6C24.672 125.264 24.288 126.728 23.52 127.992C22.768 129.256 21.704 130.24 20.328 130.944C18.968 131.648 17.392 132 15.6 132H8.52ZM10.92 129.912H15.456C16.848 129.912 18.048 129.648 19.056 129.12C20.08 128.592 20.872 127.856 21.432 126.912C21.992 125.952 22.272 124.848 22.272 123.6C22.272 122.336 21.992 121.232 21.432 120.288C20.872 119.344 20.08 118.608 19.056 118.08C18.048 117.552 16.848 117.288 15.456 117.288H10.92V129.912ZM37.1081 132V129.312L36.9881 128.808V124.224C36.9881 123.248 36.7001 122.496 36.1241 121.968C35.5641 121.424 34.7161 121.152 33.5801 121.152C32.8281 121.152 32.0921 121.28 31.3721 121.536C30.6521 121.776 30.0441 122.104 29.5481 122.52L28.5881 120.792C29.2441 120.264 30.0281 119.864 30.9401 119.592C31.8681 119.304 32.8361 119.16 33.8441 119.16C35.5881 119.16 36.9321 119.584 37.8761 120.432C38.8201 121.28 39.2921 122.576 39.2921 124.32V132H37.1081ZM32.9321 132.144C31.9881 132.144 31.1561 131.984 30.4361 131.664C29.7321 131.344 29.1881 130.904 28.8041 130.344C28.4201 129.768 28.2281 129.12 28.2281 128.4C28.2281 127.712 28.3881 127.088 28.7081 126.528C29.0441 125.968 29.5801 125.52 30.3161 125.184C31.0681 124.848 32.0761 124.68 33.3401 124.68H37.3721V126.336H33.4361C32.2841 126.336 31.5081 126.528 31.1081 126.912C30.7081 127.296 30.5081 127.76 30.5081 128.304C30.5081 128.928 30.7561 129.432 31.2521 129.816C31.7481 130.184 32.4361 130.368 33.3161 130.368C34.1801 130.368 34.9321 130.176 35.5721 129.792C36.2281 129.408 36.7001 128.848 36.9881 128.112L37.4441 129.696C37.1401 130.448 36.6041 131.048 35.8361 131.496C35.0681 131.928 34.1001 132.144 32.9321 132.144ZM49.1239 132.144C47.8439 132.144 46.8519 131.8 46.1479 131.112C45.4439 130.424 45.0919 129.44 45.0919 128.16V116.496H47.3959V128.064C47.3959 128.752 47.5639 129.28 47.8999 129.648C48.2519 130.016 48.7479 130.2 49.3879 130.2C50.1079 130.2 50.7079 130 51.1879 129.6L51.9079 131.256C51.5559 131.56 51.1319 131.784 50.6359 131.928C50.1559 132.072 49.6519 132.144 49.1239 132.144ZM42.9319 121.176V119.28H51.0439V121.176H42.9319ZM63.7894 132V129.312L63.6694 128.808V124.224C63.6694 123.248 63.3814 122.496 62.8054 121.968C62.2454 121.424 61.3974 121.152 60.2614 121.152C59.5094 121.152 58.7734 121.28 58.0534 121.536C57.3334 121.776 56.7254 122.104 56.2294 122.52L55.2694 120.792C55.9254 120.264 56.7094 119.864 57.6214 119.592C58.5494 119.304 59.5174 119.16 60.5254 119.16C62.2694 119.16 63.6134 119.584 64.5574 120.432C65.5014 121.28 65.9734 122.576 65.9734 124.32V132H63.7894ZM59.6134 132.144C58.6694 132.144 57.8374 131.984 57.1174 131.664C56.4134 131.344 55.8694 130.904 55.4854 130.344C55.1014 129.768 54.9094 129.12 54.9094 128.4C54.9094 127.712 55.0694 127.088 55.3894 126.528C55.7254 125.968 56.2614 125.52 56.9974 125.184C57.7494 124.848 58.7574 124.68 60.0214 124.68H64.0534V126.336H60.1174C58.9654 126.336 58.1894 126.528 57.7894 126.912C57.3894 127.296 57.1894 127.76 57.1894 128.304C57.1894 128.928 57.4374 129.432 57.9334 129.816C58.4294 130.184 59.1174 130.368 59.9974 130.368C60.8614 130.368 61.6134 130.176 62.2534 129.792C62.9094 129.408 63.3814 128.848 63.6694 128.112L64.1254 129.696C63.8214 130.448 63.2854 131.048 62.5174 131.496C61.7494 131.928 60.7814 132.144 59.6134 132.144ZM81.6024 122.448H90.2424V124.488H81.6024V122.448ZM81.8184 129.912H91.6104V132H79.4184V115.2H91.2744V117.288H81.8184V129.912ZM94.2313 132L99.7033 124.896L99.6793 126.072L94.4713 119.28H97.0393L101.023 124.512H100.039L104.023 119.28H106.543L101.263 126.12L101.287 124.896L106.807 132H104.191L99.9913 126.432L100.927 126.576L96.7993 132H94.2313ZM114.89 132.144C113.61 132.144 112.618 131.8 111.914 131.112C111.21 130.424 110.858 129.44 110.858 128.16V116.496H113.162V128.064C113.162 128.752 113.33 129.28 113.666 129.648C114.018 130.016 114.514 130.2 115.154 130.2C115.874 130.2 116.474 130 116.954 129.6L117.674 131.256C117.322 131.56 116.898 131.784 116.402 131.928C115.922 132.072 115.418 132.144 114.89 132.144ZM108.698 121.176V119.28H116.81V121.176H108.698ZM121.659 132V119.28H123.867V122.736L123.651 121.872C124.003 120.992 124.595 120.32 125.427 119.856C126.259 119.392 127.283 119.16 128.499 119.16V121.392C128.403 121.376 128.307 121.368 128.211 121.368C128.131 121.368 128.051 121.368 127.971 121.368C126.739 121.368 125.763 121.736 125.043 122.472C124.323 123.208 123.963 124.272 123.963 125.664V132H121.659ZM139.497 132V129.312L139.377 128.808V124.224C139.377 123.248 139.089 122.496 138.513 121.968C137.953 121.424 137.105 121.152 135.969 121.152C135.217 121.152 134.481 121.28 133.761 121.536C133.041 121.776 132.433 122.104 131.937 122.52L130.977 120.792C131.633 120.264 132.417 119.864 133.329 119.592C134.257 119.304 135.225 119.16 136.233 119.16C137.977 119.16 139.321 119.584 140.265 120.432C141.209 121.28 141.681 122.576 141.681 124.32V132H139.497ZM135.321 132.144C134.377 132.144 133.545 131.984 132.825 131.664C132.121 131.344 131.577 130.904 131.193 130.344C130.809 129.768 130.617 129.12 130.617 128.4C130.617 127.712 130.777 127.088 131.097 126.528C131.433 125.968 131.969 125.52 132.705 125.184C133.457 124.848 134.465 124.68 135.729 124.68H139.761V126.336H135.825C134.673 126.336 133.897 126.528 133.497 126.912C133.097 127.296 132.897 127.76 132.897 128.304C132.897 128.928 133.145 129.432 133.641 129.816C134.137 130.184 134.825 130.368 135.705 130.368C136.569 130.368 137.321 130.176 137.961 129.792C138.617 129.408 139.089 128.848 139.377 128.112L139.833 129.696C139.529 130.448 138.993 131.048 138.225 131.496C137.457 131.928 136.489 132.144 135.321 132.144ZM152.689 132.144C151.393 132.144 150.233 131.864 149.209 131.304C148.201 130.744 147.409 129.976 146.833 129C146.257 128.024 145.969 126.904 145.969 125.64C145.969 124.376 146.257 123.256 146.833 122.28C147.409 121.304 148.201 120.544 149.209 120C150.233 119.44 151.393 119.16 152.689 119.16C153.841 119.16 154.865 119.392 155.761 119.856C156.673 120.304 157.377 120.976 157.873 121.872L156.121 123C155.705 122.376 155.193 121.92 154.585 121.632C153.993 121.328 153.353 121.176 152.665 121.176C151.833 121.176 151.089 121.36 150.433 121.728C149.777 122.096 149.257 122.616 148.873 123.288C148.489 123.944 148.297 124.728 148.297 125.64C148.297 126.552 148.489 127.344 148.873 128.016C149.257 128.688 149.777 129.208 150.433 129.576C151.089 129.944 151.833 130.128 152.665 130.128C153.353 130.128 153.993 129.984 154.585 129.696C155.193 129.392 155.705 128.928 156.121 128.304L157.873 129.408C157.377 130.288 156.673 130.968 155.761 131.448C154.865 131.912 153.841 132.144 152.689 132.144ZM166.588 132.144C165.308 132.144 164.316 131.8 163.612 131.112C162.908 130.424 162.556 129.44 162.556 128.16V116.496H164.86V128.064C164.86 128.752 165.028 129.28 165.364 129.648C165.716 130.016 166.212 130.2 166.852 130.2C167.572 130.2 168.172 130 168.652 129.6L169.372 131.256C169.02 131.56 168.596 131.784 168.1 131.928C167.62 132.072 167.116 132.144 166.588 132.144ZM160.396 121.176V119.28H168.508V121.176H160.396ZM173.357 132V119.28H175.661V132H173.357ZM174.509 116.832C174.061 116.832 173.685 116.688 173.381 116.4C173.093 116.112 172.949 115.76 172.949 115.344C172.949 114.912 173.093 114.552 173.381 114.264C173.685 113.976 174.061 113.832 174.509 113.832C174.957 113.832 175.325 113.976 175.613 114.264C175.917 114.536 176.069 114.88 176.069 115.296C176.069 115.728 175.925 116.096 175.637 116.4C175.349 116.688 174.973 116.832 174.509 116.832ZM186.709 132.144C185.429 132.144 184.293 131.864 183.301 131.304C182.309 130.744 181.525 129.976 180.949 129C180.373 128.008 180.085 126.888 180.085 125.64C180.085 124.376 180.373 123.256 180.949 122.28C181.525 121.304 182.309 120.544 183.301 120C184.293 119.44 185.429 119.16 186.709 119.16C187.973 119.16 189.101 119.44 190.093 120C191.101 120.544 191.885 121.304 192.445 122.28C193.021 123.24 193.309 124.36 193.309 125.64C193.309 126.904 193.021 128.024 192.445 129C191.885 129.976 191.101 130.744 190.093 131.304C189.101 131.864 187.973 132.144 186.709 132.144ZM186.709 130.128C187.525 130.128 188.253 129.944 188.893 129.576C189.549 129.208 190.061 128.688 190.429 128.016C190.797 127.328 190.981 126.536 190.981 125.64C190.981 124.728 190.797 123.944 190.429 123.288C190.061 122.616 189.549 122.096 188.893 121.728C188.253 121.36 187.525 121.176 186.709 121.176C185.893 121.176 185.165 121.36 184.525 121.728C183.885 122.096 183.373 122.616 182.989 123.288C182.605 123.944 182.413 124.728 182.413 125.64C182.413 126.536 182.605 127.328 182.989 128.016C183.373 128.688 183.885 129.208 184.525 129.576C185.165 129.944 185.893 130.128 186.709 130.128ZM204.487 119.16C205.527 119.16 206.439 119.36 207.223 119.76C208.023 120.16 208.647 120.768 209.095 121.584C209.543 122.4 209.767 123.432 209.767 124.68V132H207.463V124.944C207.463 123.712 207.159 122.784 206.551 122.16C205.959 121.536 205.119 121.224 204.031 121.224C203.215 121.224 202.503 121.384 201.895 121.704C201.287 122.024 200.815 122.496 200.479 123.12C200.159 123.744 199.999 124.52 199.999 125.448V132H197.695V119.28H199.903V122.712L199.543 121.8C199.959 120.968 200.599 120.32 201.463 119.856C202.327 119.392 203.335 119.16 204.487 119.16ZM225.372 123.144H234.036V125.208H225.372V123.144ZM225.612 132H223.212V115.2H235.068V117.288H225.612V132ZM239.076 132V119.28H241.284V122.736L241.068 121.872C241.42 120.992 242.012 120.32 242.844 119.856C243.676 119.392 244.7 119.16 245.916 119.16V121.392C245.82 121.376 245.724 121.368 245.628 121.368C245.548 121.368 245.468 121.368 245.388 121.368C244.156 121.368 243.18 121.736 242.46 122.472C241.74 123.208 241.38 124.272 241.38 125.664V132H239.076ZM255.287 132.144C254.007 132.144 252.871 131.864 251.879 131.304C250.887 130.744 250.103 129.976 249.527 129C248.951 128.008 248.663 126.888 248.663 125.64C248.663 124.376 248.951 123.256 249.527 122.28C250.103 121.304 250.887 120.544 251.879 120C252.871 119.44 254.007 119.16 255.287 119.16C256.551 119.16 257.679 119.44 258.671 120C259.679 120.544 260.463 121.304 261.023 122.28C261.599 123.24 261.887 124.36 261.887 125.64C261.887 126.904 261.599 128.024 261.023 129C260.463 129.976 259.679 130.744 258.671 131.304C257.679 131.864 256.551 132.144 255.287 132.144ZM255.287 130.128C256.103 130.128 256.831 129.944 257.471 129.576C258.127 129.208 258.639 128.688 259.007 128.016C259.375 127.328 259.559 126.536 259.559 125.64C259.559 124.728 259.375 123.944 259.007 123.288C258.639 122.616 258.127 122.096 257.471 121.728C256.831 121.36 256.103 121.176 255.287 121.176C254.471 121.176 253.743 121.36 253.103 121.728C252.463 122.096 251.951 122.616 251.567 123.288C251.183 123.944 250.991 124.728 250.991 125.64C250.991 126.536 251.183 127.328 251.567 128.016C251.951 128.688 252.463 129.208 253.103 129.576C253.743 129.944 254.471 130.128 255.287 130.128ZM282.185 119.16C283.209 119.16 284.113 119.36 284.897 119.76C285.681 120.16 286.289 120.768 286.721 121.584C287.169 122.4 287.393 123.432 287.393 124.68V132H285.089V124.944C285.089 123.712 284.801 122.784 284.225 122.16C283.649 121.536 282.841 121.224 281.801 121.224C281.033 121.224 280.361 121.384 279.785 121.704C279.209 122.024 278.761 122.496 278.441 123.12C278.137 123.744 277.985 124.52 277.985 125.448V132H275.681V124.944C275.681 123.712 275.393 122.784 274.817 122.16C274.257 121.536 273.449 121.224 272.393 121.224C271.641 121.224 270.977 121.384 270.401 121.704C269.825 122.024 269.377 122.496 269.057 123.12C268.737 123.744 268.577 124.52 268.577 125.448V132H266.273V119.28H268.481V122.664L268.121 121.8C268.521 120.968 269.137 120.32 269.969 119.856C270.801 119.392 271.769 119.16 272.873 119.16C274.089 119.16 275.137 119.464 276.017 120.072C276.897 120.664 277.473 121.568 277.745 122.784L276.809 122.4C277.193 121.424 277.865 120.64 278.825 120.048C279.785 119.456 280.905 119.16 282.185 119.16ZM305.734 132.144C304.502 132.144 303.398 131.872 302.422 131.328C301.462 130.784 300.702 130.024 300.142 129.048C299.582 128.072 299.302 126.936 299.302 125.64C299.302 124.344 299.582 123.216 300.142 122.256C300.702 121.28 301.462 120.52 302.422 119.976C303.398 119.432 304.502 119.16 305.734 119.16C306.806 119.16 307.774 119.4 308.638 119.88C309.502 120.36 310.19 121.08 310.702 122.04C311.23 123 311.494 124.2 311.494 125.64C311.494 127.08 311.238 128.28 310.726 129.24C310.23 130.2 309.55 130.928 308.686 131.424C307.822 131.904 306.838 132.144 305.734 132.144ZM305.926 130.128C306.726 130.128 307.446 129.944 308.086 129.576C308.742 129.208 309.254 128.688 309.622 128.016C310.006 127.328 310.198 126.536 310.198 125.64C310.198 124.728 310.006 123.944 309.622 123.288C309.254 122.616 308.742 122.096 308.086 121.728C307.446 121.36 306.726 121.176 305.926 121.176C305.11 121.176 304.382 121.36 303.742 121.728C303.102 122.096 302.59 122.616 302.206 123.288C301.822 123.944 301.63 124.728 301.63 125.64C301.63 126.536 301.822 127.328 302.206 128.016C302.59 128.688 303.102 129.208 303.742 129.576C304.382 129.944 305.11 130.128 305.926 130.128ZM310.27 132V128.568L310.414 125.616L310.174 122.664V114.192H312.478V132H310.27ZM323.485 132.144C322.205 132.144 321.069 131.864 320.077 131.304C319.085 130.744 318.301 129.976 317.725 129C317.149 128.008 316.861 126.888 316.861 125.64C316.861 124.376 317.149 123.256 317.725 122.28C318.301 121.304 319.085 120.544 320.077 120C321.069 119.44 322.205 119.16 323.485 119.16C324.749 119.16 325.877 119.44 326.869 120C327.877 120.544 328.661 121.304 329.221 122.28C329.797 123.24 330.085 124.36 330.085 125.64C330.085 126.904 329.797 128.024 329.221 129C328.661 129.976 327.877 130.744 326.869 131.304C325.877 131.864 324.749 132.144 323.485 132.144ZM323.485 130.128C324.301 130.128 325.029 129.944 325.669 129.576C326.325 129.208 326.837 128.688 327.205 128.016C327.573 127.328 327.757 126.536 327.757 125.64C327.757 124.728 327.573 123.944 327.205 123.288C326.837 122.616 326.325 122.096 325.669 121.728C325.029 121.36 324.301 121.176 323.485 121.176C322.669 121.176 321.941 121.36 321.301 121.728C320.661 122.096 320.149 122.616 319.765 123.288C319.381 123.944 319.189 124.728 319.189 125.64C319.189 126.536 319.381 127.328 319.765 128.016C320.149 128.688 320.661 129.208 321.301 129.576C321.941 129.944 322.669 130.128 323.485 130.128ZM340.016 132.144C338.72 132.144 337.56 131.864 336.536 131.304C335.528 130.744 334.736 129.976 334.16 129C333.584 128.024 333.296 126.904 333.296 125.64C333.296 124.376 333.584 123.256 334.16 122.28C334.736 121.304 335.528 120.544 336.536 120C337.56 119.44 338.72 119.16 340.016 119.16C341.168 119.16 342.192 119.392 343.088 119.856C344 120.304 344.704 120.976 345.2 121.872L343.448 123C343.032 122.376 342.52 121.92 341.912 121.632C341.32 121.328 340.68 121.176 339.992 121.176C339.16 121.176 338.416 121.36 337.76 121.728C337.104 122.096 336.584 122.616 336.2 123.288C335.816 123.944 335.624 124.728 335.624 125.64C335.624 126.552 335.816 127.344 336.2 128.016C336.584 128.688 337.104 129.208 337.76 129.576C338.416 129.944 339.16 130.128 339.992 130.128C340.68 130.128 341.32 129.984 341.912 129.696C342.52 129.392 343.032 128.928 343.448 128.304L345.2 129.408C344.704 130.288 344 130.968 343.088 131.448C342.192 131.912 341.168 132.144 340.016 132.144ZM354.734 132.144C353.646 132.144 352.686 131.944 351.854 131.544C351.038 131.144 350.398 130.536 349.934 129.72C349.486 128.888 349.262 127.848 349.262 126.6V119.28H351.566V126.336C351.566 127.584 351.862 128.52 352.454 129.144C353.062 129.768 353.91 130.08 354.998 130.08C355.798 130.08 356.494 129.92 357.086 129.6C357.678 129.264 358.134 128.784 358.454 128.16C358.774 127.52 358.934 126.752 358.934 125.856V119.28H361.238V132H359.054V128.568L359.414 129.48C358.998 130.328 358.374 130.984 357.542 131.448C356.71 131.912 355.774 132.144 354.734 132.144ZM382.737 119.16C383.761 119.16 384.665 119.36 385.449 119.76C386.233 120.16 386.841 120.768 387.273 121.584C387.721 122.4 387.945 123.432 387.945 124.68V132H385.641V124.944C385.641 123.712 385.353 122.784 384.777 122.16C384.201 121.536 383.393 121.224 382.353 121.224C381.585 121.224 380.913 121.384 380.337 121.704C379.761 122.024 379.313 122.496 378.993 123.12C378.689 123.744 378.537 124.52 378.537 125.448V132H376.233V124.944C376.233 123.712 375.945 122.784 375.369 122.16C374.809 121.536 374.001 121.224 372.945 121.224C372.193 121.224 371.529 121.384 370.953 121.704C370.377 122.024 369.929 122.496 369.609 123.12C369.289 123.744 369.129 124.52 369.129 125.448V132H366.825V119.28H369.033V122.664L368.673 121.8C369.073 120.968 369.689 120.32 370.521 119.856C371.353 119.392 372.321 119.16 373.425 119.16C374.641 119.16 375.689 119.464 376.569 120.072C377.449 120.664 378.025 121.568 378.297 122.784L377.361 122.4C377.745 121.424 378.417 120.64 379.377 120.048C380.337 119.456 381.457 119.16 382.737 119.16ZM399.048 132.144C397.688 132.144 396.488 131.864 395.448 131.304C394.424 130.744 393.624 129.976 393.048 129C392.488 128.024 392.208 126.904 392.208 125.64C392.208 124.376 392.48 123.256 393.024 122.28C393.584 121.304 394.344 120.544 395.304 120C396.28 119.44 397.376 119.16 398.592 119.16C399.824 119.16 400.912 119.432 401.856 119.976C402.8 120.52 403.536 121.288 404.064 122.28C404.608 123.256 404.88 124.4 404.88 125.712C404.88 125.808 404.872 125.92 404.856 126.048C404.856 126.176 404.848 126.296 404.832 126.408H394.008V124.752H403.632L402.696 125.328C402.712 124.512 402.544 123.784 402.192 123.144C401.84 122.504 401.352 122.008 400.728 121.656C400.12 121.288 399.408 121.104 398.592 121.104C397.792 121.104 397.08 121.288 396.456 121.656C395.832 122.008 395.344 122.512 394.992 123.168C394.64 123.808 394.464 124.544 394.464 125.376V125.76C394.464 126.608 394.656 127.368 395.04 128.04C395.44 128.696 395.992 129.208 396.696 129.576C397.4 129.944 398.208 130.128 399.12 130.128C399.872 130.128 400.552 130 401.16 129.744C401.784 129.488 402.328 129.104 402.792 128.592L404.064 130.08C403.488 130.752 402.768 131.264 401.904 131.616C401.056 131.968 400.104 132.144 399.048 132.144ZM416.071 119.16C417.111 119.16 418.023 119.36 418.807 119.76C419.607 120.16 420.231 120.768 420.679 121.584C421.127 122.4 421.351 123.432 421.351 124.68V132H419.047V124.944C419.047 123.712 418.743 122.784 418.135 122.16C417.543 121.536 416.703 121.224 415.615 121.224C414.799 121.224 414.087 121.384 413.479 121.704C412.871 122.024 412.399 122.496 412.063 123.12C411.743 123.744 411.583 124.52 411.583 125.448V132H409.279V119.28H411.487V122.712L411.127 121.8C411.543 120.968 412.183 120.32 413.047 119.856C413.911 119.392 414.919 119.16 416.071 119.16ZM431.183 132.144C429.903 132.144 428.911 131.8 428.207 131.112C427.503 130.424 427.151 129.44 427.151 128.16V116.496H429.455V128.064C429.455 128.752 429.623 129.28 429.959 129.648C430.311 130.016 430.807 130.2 431.447 130.2C432.167 130.2 432.767 130 433.247 129.6L433.967 131.256C433.615 131.56 433.191 131.784 432.695 131.928C432.215 132.072 431.711 132.144 431.183 132.144ZM424.991 121.176V119.28H433.103V121.176H424.991ZM441.601 132.144C440.545 132.144 439.537 132 438.577 131.712C437.633 131.424 436.889 131.072 436.345 130.656L437.305 128.832C437.849 129.2 438.521 129.512 439.321 129.768C440.121 130.024 440.937 130.152 441.769 130.152C442.841 130.152 443.609 130 444.073 129.696C444.553 129.392 444.793 128.968 444.793 128.424C444.793 128.024 444.649 127.712 444.361 127.488C444.073 127.264 443.689 127.096 443.209 126.984C442.745 126.872 442.225 126.776 441.649 126.696C441.073 126.6 440.497 126.488 439.921 126.36C439.345 126.216 438.817 126.024 438.337 125.784C437.857 125.528 437.473 125.184 437.185 124.752C436.897 124.304 436.753 123.712 436.753 122.976C436.753 122.208 436.969 121.536 437.401 120.96C437.833 120.384 438.441 119.944 439.225 119.64C440.025 119.32 440.969 119.16 442.057 119.16C442.889 119.16 443.729 119.264 444.577 119.472C445.441 119.664 446.145 119.944 446.689 120.312L445.705 122.136C445.129 121.752 444.529 121.488 443.905 121.344C443.281 121.2 442.657 121.128 442.033 121.128C441.025 121.128 440.273 121.296 439.777 121.632C439.281 121.952 439.033 122.368 439.033 122.88C439.033 123.312 439.177 123.648 439.465 123.888C439.769 124.112 440.153 124.288 440.617 124.416C441.097 124.544 441.625 124.656 442.201 124.752C442.777 124.832 443.353 124.944 443.929 125.088C444.505 125.216 445.025 125.4 445.489 125.64C445.969 125.88 446.353 126.216 446.641 126.648C446.945 127.08 447.097 127.656 447.097 128.376C447.097 129.144 446.873 129.808 446.425 130.368C445.977 130.928 445.345 131.368 444.529 131.688C443.713 131.992 442.737 132.144 441.601 132.144ZM458.822 132V119.28H461.126V132H458.822ZM459.974 116.832C459.526 116.832 459.15 116.688 458.846 116.4C458.558 116.112 458.414 115.76 458.414 115.344C458.414 114.912 458.558 114.552 458.846 114.264C459.15 113.976 459.526 113.832 459.974 113.832C460.422 113.832 460.79 113.976 461.078 114.264C461.382 114.536 461.534 114.88 461.534 115.296C461.534 115.728 461.39 116.096 461.102 116.4C460.814 116.688 460.438 116.832 459.974 116.832ZM473.517 119.16C474.557 119.16 475.469 119.36 476.253 119.76C477.053 120.16 477.677 120.768 478.125 121.584C478.573 122.4 478.797 123.432 478.797 124.68V132H476.493V124.944C476.493 123.712 476.189 122.784 475.581 122.16C474.989 121.536 474.149 121.224 473.061 121.224C472.245 121.224 471.533 121.384 470.925 121.704C470.317 122.024 469.845 122.496 469.509 123.12C469.189 123.744 469.029 124.52 469.029 125.448V132H466.725V119.28H468.933V122.712L468.573 121.8C468.989 120.968 469.629 120.32 470.493 119.856C471.357 119.392 472.365 119.16 473.517 119.16ZM488.629 132.144C487.349 132.144 486.357 131.8 485.653 131.112C484.949 130.424 484.597 129.44 484.597 128.16V116.496H486.901V128.064C486.901 128.752 487.069 129.28 487.405 129.648C487.757 130.016 488.253 130.2 488.893 130.2C489.613 130.2 490.213 130 490.693 129.6L491.413 131.256C491.061 131.56 490.637 131.784 490.141 131.928C489.661 132.072 489.157 132.144 488.629 132.144ZM482.437 121.176V119.28H490.549V121.176H482.437ZM500.64 132.144C499.28 132.144 498.08 131.864 497.04 131.304C496.016 130.744 495.216 129.976 494.64 129C494.08 128.024 493.8 126.904 493.8 125.64C493.8 124.376 494.072 123.256 494.616 122.28C495.176 121.304 495.936 120.544 496.896 120C497.872 119.44 498.968 119.16 500.184 119.16C501.416 119.16 502.504 119.432 503.448 119.976C504.392 120.52 505.128 121.288 505.656 122.28C506.2 123.256 506.472 124.4 506.472 125.712C506.472 125.808 506.464 125.92 506.448 126.048C506.448 126.176 506.44 126.296 506.424 126.408H495.6V124.752H505.224L504.288 125.328C504.304 124.512 504.136 123.784 503.784 123.144C503.432 122.504 502.944 122.008 502.32 121.656C501.712 121.288 501 121.104 500.184 121.104C499.384 121.104 498.672 121.288 498.048 121.656C497.424 122.008 496.936 122.512 496.584 123.168C496.232 123.808 496.056 124.544 496.056 125.376V125.76C496.056 126.608 496.248 127.368 496.632 128.04C497.032 128.696 497.584 129.208 498.288 129.576C498.992 129.944 499.8 130.128 500.712 130.128C501.464 130.128 502.144 130 502.752 129.744C503.376 129.488 503.92 129.104 504.384 128.592L505.656 130.08C505.08 130.752 504.36 131.264 503.496 131.616C502.648 131.968 501.696 132.144 500.64 132.144ZM510.872 132V114.192H513.176V132H510.872ZM518.775 132V114.192H521.079V132H518.775ZM526.678 132V119.28H528.982V132H526.678ZM527.83 116.832C527.382 116.832 527.006 116.688 526.702 116.4C526.414 116.112 526.27 115.76 526.27 115.344C526.27 114.912 526.414 114.552 526.702 114.264C527.006 113.976 527.382 113.832 527.83 113.832C528.278 113.832 528.646 113.976 528.934 114.264C529.238 114.536 529.39 114.88 529.39 115.296C529.39 115.728 529.246 116.096 528.958 116.4C528.67 116.688 528.294 116.832 527.83 116.832ZM540.149 136.8C538.981 136.8 537.845 136.632 536.741 136.296C535.653 135.976 534.765 135.512 534.077 134.904L535.181 133.128C535.773 133.64 536.501 134.04 537.365 134.328C538.229 134.632 539.133 134.784 540.077 134.784C541.581 134.784 542.685 134.432 543.389 133.728C544.093 133.024 544.445 131.952 544.445 130.512V127.824L544.685 125.304L544.565 122.76V119.28H546.749V130.272C546.749 132.512 546.189 134.16 545.069 135.216C543.949 136.272 542.309 136.8 540.149 136.8ZM539.861 131.472C538.629 131.472 537.525 131.216 536.549 130.704C535.589 130.176 534.821 129.448 534.245 128.52C533.685 127.592 533.405 126.52 533.405 125.304C533.405 124.072 533.685 123 534.245 122.088C534.821 121.16 535.589 120.44 536.549 119.928C537.525 119.416 538.629 119.16 539.861 119.16C540.949 119.16 541.941 119.384 542.837 119.832C543.733 120.264 544.445 120.936 544.973 121.848C545.517 122.76 545.789 123.912 545.789 125.304C545.789 126.68 545.517 127.824 544.973 128.736C544.445 129.648 543.733 130.336 542.837 130.8C541.941 131.248 540.949 131.472 539.861 131.472ZM540.125 129.456C540.973 129.456 541.725 129.28 542.381 128.928C543.037 128.576 543.549 128.088 543.917 127.464C544.301 126.84 544.493 126.12 544.493 125.304C544.493 124.488 544.301 123.768 543.917 123.144C543.549 122.52 543.037 122.04 542.381 121.704C541.725 121.352 540.973 121.176 540.125 121.176C539.277 121.176 538.517 121.352 537.845 121.704C537.189 122.04 536.669 122.52 536.285 123.144C535.917 123.768 535.733 124.488 535.733 125.304C535.733 126.12 535.917 126.84 536.285 127.464C536.669 128.088 537.189 128.576 537.845 128.928C538.517 129.28 539.277 129.456 540.125 129.456ZM558.015 132.144C556.655 132.144 555.455 131.864 554.415 131.304C553.391 130.744 552.591 129.976 552.015 129C551.455 128.024 551.175 126.904 551.175 125.64C551.175 124.376 551.447 123.256 551.991 122.28C552.551 121.304 553.311 120.544 554.271 120C555.247 119.44 556.343 119.16 557.559 119.16C558.791 119.16 559.879 119.432 560.823 119.976C561.767 120.52 562.503 121.288 563.031 122.28C563.575 123.256 563.847 124.4 563.847 125.712C563.847 125.808 563.839 125.92 563.823 126.048C563.823 126.176 563.815 126.296 563.799 126.408H552.975V124.752H562.599L561.663 125.328C561.679 124.512 561.511 123.784 561.159 123.144C560.807 122.504 560.319 122.008 559.695 121.656C559.087 121.288 558.375 121.104 557.559 121.104C556.759 121.104 556.047 121.288 555.423 121.656C554.799 122.008 554.311 122.512 553.959 123.168C553.607 123.808 553.431 124.544 553.431 125.376V125.76C553.431 126.608 553.623 127.368 554.007 128.04C554.407 128.696 554.959 129.208 555.663 129.576C556.367 129.944 557.175 130.128 558.087 130.128C558.839 130.128 559.519 130 560.127 129.744C560.751 129.488 561.295 129.104 561.759 128.592L563.031 130.08C562.455 130.752 561.735 131.264 560.871 131.616C560.023 131.968 559.071 132.144 558.015 132.144ZM575.039 119.16C576.079 119.16 576.991 119.36 577.775 119.76C578.575 120.16 579.199 120.768 579.647 121.584C580.095 122.4 580.319 123.432 580.319 124.68V132H578.015V124.944C578.015 123.712 577.711 122.784 577.103 122.16C576.511 121.536 575.671 121.224 574.583 121.224C573.767 121.224 573.055 121.384 572.447 121.704C571.839 122.024 571.367 122.496 571.031 123.12C570.711 123.744 570.551 124.52 570.551 125.448V132H568.247V119.28H570.455V122.712L570.095 121.8C570.511 120.968 571.151 120.32 572.015 119.856C572.879 119.392 573.887 119.16 575.039 119.16ZM590.15 132.144C588.87 132.144 587.878 131.8 587.174 131.112C586.47 130.424 586.118 129.44 586.118 128.16V116.496H588.422V128.064C588.422 128.752 588.59 129.28 588.926 129.648C589.278 130.016 589.774 130.2 590.414 130.2C591.134 130.2 591.734 130 592.214 129.6L592.934 131.256C592.582 131.56 592.158 131.784 591.662 131.928C591.182 132.072 590.678 132.144 590.15 132.144ZM583.958 121.176V119.28H592.07V121.176H583.958ZM596.92 132V114.192H599.224V132H596.92ZM605.375 136.8C604.767 136.8 604.175 136.696 603.599 136.488C603.023 136.296 602.527 136.008 602.111 135.624L603.095 133.896C603.415 134.2 603.767 134.432 604.151 134.592C604.535 134.752 604.943 134.832 605.375 134.832C605.935 134.832 606.399 134.688 606.767 134.4C607.135 134.112 607.479 133.6 607.799 132.864L608.591 131.112L608.831 130.824L613.823 119.28H616.079L609.911 133.272C609.543 134.168 609.127 134.872 608.663 135.384C608.215 135.896 607.719 136.256 607.175 136.464C606.631 136.688 606.031 136.8 605.375 136.8ZM608.399 132.408L602.591 119.28H604.991L609.935 130.608L608.399 132.408Z" fill="black"/>
</svg>
