<svg width="24" height="24" viewBox="0 0 24 24" fill="none" xmlns="http://www.w3.org/2000/svg">
<path d="M10.564 16.7466C11.9419 16.7466 13.2285 16.2983 14.2744 15.5513L18.209 19.4858C18.3916 19.6685 18.6323 19.7598 18.8813 19.7598C19.4209 19.7598 19.811 19.3447 19.811 18.8135C19.811 18.5645 19.728 18.332 19.5454 18.1494L15.6357 14.2314C16.4575 13.1523 16.9473 11.8159 16.9473 10.3633C16.9473 6.85205 14.0752 3.97998 10.564 3.97998C7.04443 3.97998 4.18066 6.85205 4.18066 10.3633C4.18066 13.8745 7.04443 16.7466 10.564 16.7466ZM10.564 15.3687C7.81641 15.3687 5.55859 13.1025 5.55859 10.3633C5.55859 7.62402 7.81641 5.35791 10.564 5.35791C13.3032 5.35791 15.5693 7.62402 15.5693 10.3633C15.5693 13.1025 13.3032 15.3687 10.564 15.3687Z" fill="#3C3C43" fill-opacity="0.6"/>
</svg>
